<svg fill="#fff" width="286" height="78" viewBox="0 0 286 78" xmlns="http://www.w3.org/2000/svg">
<path d="M34.8,35.3c0-3,2.5-5.4,5.4-5.4c3,0,5.4,2.5,5.4,5.4c0,0.7-0.1,1.4-0.4,2l6.9,5.2c0.8-0.6,1.9-0.9,3-0.9
	c0.4,0,0.8,0.1,1.2,0.1l5.4-9.2c-2-1.8-3.3-4.4-3.3-7.3c0-2.5,0.9-4.7,2.5-6.5l-6.2-3.6c-2.8-1.6-6.1-1.6-8.9,0l-14,8.1
	c-2.8,1.6-4.4,4.5-4.4,7.7v16.8c0.7-0.5,1.5-0.9,2.3-1.1c0.3-0.1,0.7-0.1,1.1-0.1c0.2,0,0.6,0,0.9,0.1l4.5-7.6
	C35.4,38,34.8,36.7,34.8,35.3L34.8,35.3z"/>
<path d="M68.2,34.9c-1.2,0-2.4-0.2-3.5-0.6l-5.3,9.3c0.8,1,1.3,2.1,1.3,3.6c0,3-2.5,5.4-5.4,5.4c-3,0-5.4-2.5-5.4-5.4
	c0-0.7,0.1-1.3,0.4-1.9l-6.9-5.4c-0.8,0.6-1.9,1-3,1c-0.4,0-0.8-0.1-1.1-0.1l-4.5,7.5c0.5,0.5,0.9,1.1,1.1,1.7
	c0.2,0.7,0.4,1.4,0.4,2.1c0,1.7-0.8,3.2-1.9,4.2l11.5,6.6c2.8,1.6,6.1,1.6,8.9,0l14-8.1c2.8-1.6,4.5-4.5,4.5-7.7V33.4
	C71.8,34.4,70.1,34.9,68.2,34.9z"/>
<ellipse cx="68.2" cy="25.1" rx="5.6" ry="5.6"/>
<g>
	<path d="M94.7,51.5h-9V29.1c0-1.5,1.9-2.6,3.3-2.6h2.8c1.6,0,2.9,0.1,4.1,0.2s2.2,0.5,2.9,0.9c0.8,0.4,1.4,1.1,1.8,1.9
		s0.6,1.9,0.6,3.2c0,1.2-0.1,2.2-0.4,3c-0.2,0.8-0.8,1.6-1.7,2.5c1.5,0.6,2.6,1.3,3.3,2.3c0.6,1,1,2.2,1,3.7
		C103.4,49,100.6,51.5,94.7,51.5L94.7,51.5z M93.1,29.8h-2.2c-0.8,0-1.3,0.6-1.3,1.3v5.6H94c0.4,0,0.9-0.1,1.3-0.1
		c0.4-0.1,0.8-0.2,1.2-0.5c0.4-0.3,0.6-0.6,0.8-1.1c0.2-0.5,0.3-1.1,0.3-1.9c0-1.4-0.4-2.3-1.1-2.7C95.7,30,94.5,29.8,93.1,29.8z
		 M94.7,40h-3.8c-0.8,0-1.3,0.6-1.3,1.3v6.9h3.9c2,0,3.6-0.2,4.6-0.8c1-0.5,1.5-1.6,1.5-3.2C99.5,41.4,97.9,40,94.7,40L94.7,40z
		 M108.8,30.4c1,0,1.8-0.8,1.8-1.8s-0.8-1.8-1.8-1.8s-1.8,0.8-1.8,1.8C107,29.7,107.8,30.4,108.8,30.4z M110.5,34.1h-1.2
		c-1.2,0-2.3,1-2.3,2.3v15.1h1c1.5,0,2.6-1.2,2.6-2.6L110.5,34.1L110.5,34.1L110.5,34.1z M122.4,37c1.5,0,2.6-1.2,2.6-2.6v-0.2h-4.3
		v-4.5l-1.2,0.1c-1.3,0.1-2.4,1.2-2.4,2.6v1.8h-1.3c-1.5,0-2.6,1.2-2.6,2.6V37h3.9v10.6c0,1.2,0.4,2.2,1.1,3
		c0.8,0.8,1.8,0.9,3.4,0.9h0.6c1.4,0,2.6-1.1,2.8-2.5l0,0h-1c-0.8,0-1.4,0-1.8-0.1s-0.8-0.2-1-0.4s-0.4-0.6-0.4-1
		c-0.1-0.4-0.1-1.1-0.1-1.8V37H122.4L122.4,37z"/>
	<path d="M147.4,51.5h-2.5c-0.9,0-1.8-0.5-2.3-1.4l-4.7-8.3h-3.7c-0.8,0-1.3,0.6-1.3,1.3v5.6c0,1.5-1.2,2.6-2.6,2.6H129
		V29c0-1.5,1.2-2.6,2.6-2.6h5.9c2.8,0,4.9,0.6,6.4,1.7s2.3,3,2.3,5.6c0,3.2-1.5,5.6-4.5,7.1L147.4,51.5L147.4,51.5z M137,29.6h-2.8
		c-0.8,0-1.3,0.6-1.3,1.3v7.4h4.7c1.4,0,2.5-0.4,3.3-1.1c0.8-0.7,1.2-1.8,1.2-3.3C142.1,31,140.4,29.6,137,29.6L137,29.6z
		 M163.3,42.8h-8.8c-0.9,0-1.5,0.8-1.2,1.6c0.8,2.6,2.7,3.9,5.7,3.9c1.8,0,3.5-0.4,5.2-1.2l0.1,0.9c0.1,1.2-0.6,2.5-1.8,2.8
		c-1.2,0.4-2.5,0.6-3.7,0.6c-1.5,0-2.8-0.2-4-0.7s-2.2-1.1-2.9-1.9c-0.8-0.8-1.5-1.8-1.8-2.9c-0.4-1.1-0.6-2.3-0.6-3.6
		c0-1.2,0.2-2.5,0.6-3.5c0.4-1.1,0.9-2.1,1.7-2.9c0.8-0.8,1.6-1.5,2.7-1.9c1.1-0.4,2.2-0.7,3.5-0.7c1.1,0,2.1,0.2,3,0.5
		c0.9,0.4,1.8,0.9,2.4,1.5c0.7,0.6,1.2,1.5,1.6,2.3c0.4,0.9,0.6,1.9,0.6,3C165.2,42,164.4,42.8,163.3,42.8L163.3,42.8z M157.7,36.5
		c-2.5,0-3.9,1.2-4.6,3.8h8.5c0-1.1-0.3-2.1-0.9-2.8C160,36.9,159,36.5,157.7,36.5z M192.3,34.1l-4.6,15.5c-0.3,1.1-1.4,1.9-2.5,1.9
		h-1.6L180,39.1l-3,10.5c-0.3,1.1-1.4,1.9-2.5,1.9h-1.6L167.6,34h1.9c1.2,0,2.3,0.8,2.6,2l2.8,11.3l3.2-11.2
		c0.2-0.9,1.1-1.6,2.1-1.6s1.9,0.7,2.1,1.6l3.2,11.2l2.8-11.3c0.3-1.2,1.3-2,2.6-2L192.3,34.1L192.3,34.1L192.3,34.1z M210.4,48.7
		l-0.4,2.9h-0.7c-1.2,0-2.2-0.2-2.8-0.6c-0.2-0.2-0.5-0.4-0.8-0.7c-0.4-0.5-1.2-0.6-1.8-0.1c-1.2,0.9-2.6,1.4-4.3,1.4
		c-0.8,0-1.5-0.1-2.1-0.4c-0.6-0.2-1.2-0.6-1.6-1.1c-0.4-0.4-0.8-1-1.1-1.6c-0.2-0.6-0.4-1.3-0.4-2.1c0-1.2,0.3-2.1,1-2.9
		c0.7-0.8,1.5-1.5,2.5-1.9c1-0.5,2.1-0.8,3.3-1s2.3-0.3,3.4-0.3c0-1.4-0.3-2.3-0.9-2.8c-0.6-0.5-1.5-0.8-2.7-0.8
		c-1.5,0-3,0.5-4.6,1.5l-0.4-2.9c1.8-1.1,3.7-1.8,6.1-1.8c2.2,0,3.7,0.6,4.7,1.8s1.5,3.3,1.5,6.1v3.9c0,0.7,0,1.2,0.1,1.6
		c0.1,0.4,0.1,0.8,0.2,1c0.1,0.2,0.3,0.4,0.6,0.5c0.2,0.1,0.6,0.2,0.9,0.2L210.4,48.7l0.1-0.2h-0.1V48.7z M204.5,45.6v-3
		c-4.3,0.2-6.5,1.4-6.5,3.6c0,1.6,0.9,2.5,2.6,2.5c1.1,0,2-0.3,2.9-1C204.2,47.2,204.5,46.5,204.5,45.6z M223.1,33.3l-0.8,3.7h-1.2
		c-0.4,0-0.7,0.1-1.1,0.2c-0.4,0.1-0.8,0.2-1.1,0.4s-0.6,0.4-0.9,0.6c-0.4,0.4-0.6,0.9-0.6,1.4v9.3c0,1.5-1.2,2.6-2.6,2.6h-1.1V36.3
		c0-1.5,1.2-2.6,2.6-2.6h0.8v2.5c1.8-2,3.6-3,5.4-3L223.1,33.3L223.1,33.3L223.1,33.3L223.1,33.3z M241.3,48.6
		c0,1.5-1.2,2.6-2.6,2.6h-0.9v-1.8c-0.6,0.7-1.4,1.2-2.3,1.6c-0.9,0.4-1.8,0.6-2.7,0.6c-1.2,0-2.3-0.2-3.3-0.7s-1.8-1.1-2.6-1.9
		c-0.7-0.8-1.2-1.8-1.7-2.9c-0.4-1.1-0.6-2.3-0.6-3.6c0-1.2,0.2-2.5,0.6-3.5c0.4-1.1,0.9-2.1,1.6-2.9s1.6-1.5,2.6-1.9
		c1-0.5,2.1-0.8,3.4-0.8c2,0,3.7,0.6,4.9,1.8V29c0-1.5,1.2-2.6,2.6-2.6h0.9L241.3,48.6L241.3,48.6z M233.1,36.5
		c-0.7,0-1.4,0.1-1.9,0.4c-0.6,0.3-1.1,0.7-1.5,1.2s-0.7,1.1-0.9,1.9c-0.2,0.8-0.3,1.6-0.3,2.5s0.1,1.6,0.3,2.4
		c0.2,0.8,0.6,1.4,0.9,1.9c0.4,0.5,0.9,0.9,1.5,1.2s1.2,0.4,1.9,0.4c1.5,0,2.6-0.5,3.5-1.5s1.5-2.5,1.5-4.4c0-0.9-0.1-1.8-0.4-2.5
		c-0.2-0.8-0.6-1.4-1.1-1.9c-0.4-0.5-0.9-0.9-1.6-1.2C234.5,36.6,233.8,36.5,233.1,36.5L233.1,36.5z M251.9,51.6
		c-2.6,0-4.6-0.4-6-1.4l0.4-3.5l1.1,0.6c0.4,0.2,0.9,0.4,1.3,0.6c0.5,0.2,1,0.3,1.5,0.4c0.5,0.1,1.1,0.2,1.6,0.2
		c1,0,1.8-0.2,2.2-0.6c0.5-0.4,0.7-0.9,0.7-1.5s-0.2-1.1-0.8-1.5c-0.5-0.4-1.1-0.7-1.8-1s-1.5-0.6-2.3-0.8s-1.5-0.5-1.9-0.8
		c-1.1-0.7-1.8-1.9-1.8-3.5c0-0.7,0.1-1.4,0.4-2.1c0.2-0.7,0.6-1.2,1.2-1.8c0.5-0.5,1.2-0.9,2-1.2s1.8-0.4,2.9-0.4
		c2.1,0,3.9,0.4,5.3,1.2c-0.2,1.5-1.6,2.4-2.9,2c-0.6-0.2-1.3-0.3-2-0.3c-0.9,0-1.6,0.2-2.2,0.5c-0.6,0.3-0.9,0.9-0.9,1.6
		c0,0.5,0.1,0.9,0.3,1.1c0.2,0.3,0.5,0.5,0.9,0.7s0.8,0.3,1.3,0.4c0.5,0.1,1,0.2,1.5,0.4c3.3,0.8,4.9,2.6,4.9,5.3
		c0,0.6-0.1,1.1-0.2,1.8c-0.2,0.6-0.5,1.1-1,1.7c-0.5,0.5-1.2,0.9-2,1.2C254.5,51.4,253.3,51.6,251.9,51.6L251.9,51.6z"/>
</g>
</svg>
