<svg fill="#fff" width="286" height="78" viewBox="0 0 286 78" xmlns="http://www.w3.org/2000/svg">
<path d="M99.2,52.7V25.4h6V36h10.7V25.4h6v27.4h-6V41h-10.7v11.7H99.2z M124.3,59.6l1.2-4.6c0.6,0.1,1.9,0.6,3.7,0.6
	c1.2,0,2-0.5,2.5-1.7l0.3-0.9l-7.5-19.8h6.1l4.3,12.8h0.1l4.3-12.8h5.7L137,55c-1.4,3.4-3.1,5.5-7,5.5
	C126.9,60.3,125.3,59.9,124.3,59.6z M153.6,50.4v2.3h-5.9V25.4h5.9v10.7c1.2-1.8,3.1-3.4,6-3.4c4.4,0,7.5,3.4,7.5,10.2
	S164.1,53,159.5,53C156.9,53.1,155.1,52,153.6,50.4z M161.2,42.9c0-3.3-1.1-5.4-3.7-5.4c-1.5,0-2.8,0.9-3.9,2v7.2
	c1.2,1.3,2.4,1.8,4,1.8C160,48.6,161.2,46.5,161.2,42.9z M170.9,52.7V33h5.9v3.3l0,0c1-1.7,3-3.7,6.6-3.7h0.2l-0.1,5.3
	c-0.2,0-1.1-0.1-1.6-0.1c-2.4,0-4.1,1.3-5.2,2.8v12.3h-5.8V52.7z M186.5,30.3v-4.8h5.9v4.8H186.5z M186.5,52.7V33h5.9v19.8
	C192.4,52.7,186.5,52.7,186.5,52.7z M195.4,50.1l2.4-3.3c1.7,1.5,4.4,2.5,6.8,2.5c1.8,0,3.1-0.7,3.1-2c0-1.4-1-1.8-3.7-2.4
	c-3.7-0.7-7.6-1.6-7.6-6.2c0-3.9,3.2-6.2,7.6-6.2c4,0,6.4,1,8.5,2.8l-2.3,3.3c-1.9-1.4-4-2.2-5.8-2.2c-1.7,0-2.6,0.7-2.6,1.7
	c0,1.1,1,1.6,3.5,2.1c3.9,0.7,7.9,1.5,7.9,6c0,4.8-4.1,6.7-8.6,6.7C200.3,53.2,197.4,51.8,195.4,50.1z M15,46.5l4.5-2.8
	c1.5,3,4.2,4.7,7.4,4.7c2.7,0,4.8-1,4.8-3.1s-1.9-3-5.6-4c-4.9-1.4-9.9-2.6-9.9-8.4c0-5.2,4-8.2,9.8-8.2c5.6,0,8.9,2.8,10.8,5.6
	l-4.2,3.2c-1.5-2.3-4.1-3.9-6.7-3.9c-2.5,0-4,1.1-4,2.8c0,2.2,2,3,5.6,4c4.8,1.3,9.9,2.9,9.9,8.5c0,4.4-3.3,8.4-10.9,8.4
	C20.7,53.3,17,50.4,15,46.5z M38.5,52.7l9.6-27.6h5.7l9.6,27.6h-6l-2-6.1h-9.2l-2,6.1H38.5z M47.6,42.3h6.4L50.8,33h-0.1L47.6,42.3z
	 M66.4,52.7V25.3h9.9c5.8,0,11.1,1.6,11.1,8.9c0,7.4-5.8,8.9-11.1,8.9h-3.9v9.8H66.4z M72.4,38.3h4.1c3.7,0,5.1-1.5,5.1-4.1
	c0-2.5-1.4-4-5.1-4h-4.1V38.3z"/>
<path d="M242.4,63.9l-11.5-0.2l-0.7-1.8c-0.1-0.3-3.9-9.7-3.9-22.8s3.6-22.4,3.9-22.8l0.7-1.7l11.5-0.6v6l-7.3,0.2
	c-1,3.1-2.8,10-2.8,18.9c0,8.7,1.8,15.6,2.7,18.7l7.4,0.1V63.9z M257.3,29.1l-6.1-0.2c-0.6,1.7-1.6,4.6-2.7,7.5
	c-1.1-2.9-2-5.7-2.6-7.5l-6.1,0.3c0.3,1.3,2,7,4.4,12.2c1.5,3.4,3.4,7.1,4.8,9.5l6.7-0.1c0-0.1-1.8-3.3-3.7-7.1
	c0.3-0.8,0.8-1.6,1.1-2.4C255,35.8,256.9,30.1,257.3,29.1 M267,16.3l-0.7-1.7L254.9,14v6l7.4,0.3c1,3.1,2.8,10,2.8,18.9
	c0,8.7-1.8,15.6-2.7,18.7L255,58v6l11.5-0.2l0.7-1.8c0.1-0.3,3.9-9.7,3.9-22.8C270.8,26,267.1,16.6,267,16.3"/>
</svg>
