<svg fill="#263238" width="24" height="24" viewBox="0 0 24 24" xmlns="http://www.w3.org/2000/svg">
	<path d="M0.5,10h1.6c0.3,0,0.5,0,0.7,0c0.2,0,0.3,0.1,0.4,0.2s0.2,0.2,0.3,0.3c0.1,0.1,0.1,0.3,0.1,0.5
		c0,0.2-0.1,0.4-0.2,0.5c-0.1,0.2-0.2,0.3-0.4,0.3c0.2,0.1,0.4,0.2,0.6,0.4s0.2,0.4,0.2,0.6c0,0.2,0,0.4-0.1,0.5
		c-0.1,0.2-0.2,0.3-0.3,0.4C3.2,13.9,3,13.9,2.8,14c-0.1,0-0.5,0-1,0H0.5V10z M1.3,10.7v0.9h0.5c0.3,0,0.5,0,0.6,0
		c0.1,0,0.2-0.1,0.3-0.1c0.1-0.1,0.1-0.2,0.1-0.3c0-0.1,0-0.2-0.1-0.3s-0.2-0.1-0.3-0.1c-0.1,0-0.3,0-0.7,0H1.3z M1.3,12.3v1.1H2
		c0.3,0,0.5,0,0.5,0c0.1,0,0.2-0.1,0.3-0.2C3,13,3,12.9,3,12.8c0-0.1,0-0.2-0.1-0.3c-0.1-0.1-0.1-0.1-0.3-0.2
		c-0.1,0-0.3-0.1-0.7-0.1H1.3z"/>
	<path d="M4.3,12c0-0.4,0.1-0.7,0.2-1c0.1-0.2,0.2-0.4,0.4-0.5c0.2-0.2,0.3-0.3,0.5-0.4C5.6,10,5.9,9.9,6.3,9.9
		c0.6,0,1.1,0.2,1.4,0.5C8,10.9,8.2,11.4,8.2,12c0,0.6-0.2,1.1-0.5,1.5c-0.3,0.4-0.8,0.5-1.4,0.5c-0.6,0-1.1-0.2-1.4-0.5
		C4.5,13.2,4.3,12.7,4.3,12z M5.2,12c0,0.4,0.1,0.8,0.3,1c0.2,0.2,0.5,0.3,0.8,0.3c0.3,0,0.6-0.1,0.8-0.3c0.2-0.2,0.3-0.6,0.3-1
		c0-0.5-0.1-0.8-0.3-1c-0.2-0.2-0.5-0.3-0.8-0.3c-0.3,0-0.6,0.1-0.8,0.3S5.2,11.5,5.2,12z"/>
	<path d="M8.8,10h0.8v2.1c0,0.3,0,0.6,0,0.7c0,0.2,0.1,0.3,0.2,0.4c0.1,0.1,0.3,0.1,0.5,0.1c0.2,0,0.4,0,0.5-0.1
		c0.1-0.1,0.2-0.2,0.2-0.3c0-0.1,0-0.4,0-0.7V10H12v2.1c0,0.5,0,0.8-0.1,1c0,0.2-0.1,0.4-0.2,0.5c-0.1,0.1-0.3,0.2-0.5,0.3
		c-0.2,0.1-0.4,0.1-0.8,0.1c-0.4,0-0.7,0-0.9-0.1c-0.2-0.1-0.4-0.2-0.5-0.3c-0.1-0.1-0.2-0.3-0.2-0.4c-0.1-0.2-0.1-0.6-0.1-1V10z"/>
	<path d="M12.8,14v-4h0.8l1.6,2.6V10H16v4h-0.8l-1.6-2.6V14H12.8z"/>
	<path d="M17.7,14v-3.3h-1.2V10h3.2v0.7h-1.2V14H17.7z"/>
	<path d="M21.2,14v-1.7L19.8,10h0.9l0.9,1.6l0.9-1.6h0.9L22,12.3V14H21.2z"/>
</svg>
