<svg fill="#263238" width="24" height="24" viewBox="0 0 24 24" xmlns="http://www.w3.org/2000/svg">
<path d="M12,3.8c2.6,0,3,0,4.1,0.1c1,0.1,1.5,0.2,1.8,0.3C18.4,4.4,18.7,4.6,19,5c0.3,0.3,0.6,0.7,0.7,1.1
	c0.2,0.3,0.3,0.9,0.3,1.8c0.1,1,0.1,1.4,0.1,4.1s0,3-0.1,4.1c-0.1,1-0.2,1.5-0.3,1.8c-0.2,0.5-0.4,0.8-0.7,1.1s-0.7,0.6-1.1,0.7
	c-0.3,0.2-0.9,0.3-1.8,0.3c-1,0.1-1.4,0.1-4.1,0.1s-3,0-4.1-0.1c-1-0.1-1.5-0.2-1.8-0.3C5.6,19.6,5.3,19.4,5,19s-0.6-0.7-0.7-1.1
	c-0.2-0.3-0.3-0.9-0.3-1.8c-0.1-1-0.1-1.4-0.1-4.1s0-3,0.1-4.1C4,7,4.2,6.4,4.2,6.1C4.4,5.6,4.6,5.3,5,5c0.3-0.3,0.6-0.6,1.1-0.7
	C6.4,4.1,7,3.9,7.9,3.9C9,3.8,9.4,3.8,12,3.8 M12,2C9.3,2,9,2,7.8,2.1c-1,0-1.8,0.2-2.4,0.5C4.8,2.8,4.2,3.1,3.7,3.7
	S2.8,4.8,2.6,5.4C2.2,6.1,2.1,6.8,2.1,7.8C2,9,2,9.3,2,12s0,3,0.1,4.2c0.1,1,0.2,1.8,0.5,2.4s0.6,1.2,1.1,1.8
	c0.6,0.6,1.1,0.9,1.8,1.1s1.4,0.4,2.4,0.5C9,22,9.3,22,12,22s3,0,4.2-0.1c1-0.1,1.8-0.2,2.4-0.5c0.6-0.2,1.2-0.6,1.8-1.1
	c0.6-0.6,0.9-1.1,1.1-1.8c0.2-0.6,0.4-1.4,0.5-2.4c0.1-1,0.1-1.4,0.1-4.2s0-3-0.1-4.2c-0.1-1-0.2-1.8-0.5-2.4
	c-0.2-0.6-0.6-1.2-1.1-1.8c-0.6-0.6-1.1-0.9-1.8-1.1c-0.6-0.2-1.4-0.4-2.4-0.5C15,2,14.7,2,12,2L12,2z"/>
<path d="M12,6.9c-2.8,0-5.1,2.3-5.1,5.1s2.3,5.1,5.1,5.1s5.1-2.3,5.1-5.1S14.8,6.9,12,6.9z M12,15.4
	c-1.8,0-3.4-1.5-3.4-3.4s1.5-3.4,3.4-3.4s3.4,1.5,3.4,3.4S13.8,15.4,12,15.4z"/>
<circle cx="17.4" cy="6.6" r="1.2"/>
</svg>
