<svg fill="#263238" width="24" height="24" viewBox="0 0 24 24" xmlns="http://www.w3.org/2000/svg">
	<polygon points="8.8,12.3 10.2,12.3 9.5,10.3 	"/>
	<path d="M12,2C5.4,2,0,6.2,0,11.4c0,3.4,2.2,6.3,5.6,8c-0.2,0.6-1.2,4.1-1.2,4.3c0,0,0,0.2,0.1,0.3c0.1,0.1,0.3,0,0.3,0
		c0.4-0.1,4.4-2.8,5.1-3.3c0.7,0.1,1.4,0.1,2.1,0.1c6.6,0,12-4.2,12-9.4C24,6.2,18.6,2,12,2z M6.1,14c0,0.4-0.3,0.7-0.7,0.7
		S4.7,14.4,4.7,14V9.9H3.6c-0.4,0-0.7-0.3-0.7-0.7c0-0.4,0.3-0.7,0.7-0.7h3.5c0.4,0,0.7,0.3,0.7,0.7c0,0.4-0.3,0.7-0.7,0.7H6.1V14z
		 M11.9,14.6c-0.1,0.1-0.3,0.1-0.4,0.1c-0.3,0-0.5-0.1-0.6-0.3l-0.3-0.9l-2.1,0l-0.3,0.9c-0.1,0.2-0.3,0.3-0.6,0.3
		c-0.2,0-0.3,0-0.4-0.1c-0.2-0.1-0.4-0.3-0.2-1l1.7-4.3C8.7,8.9,9,8.6,9.5,8.6c0.5,0,0.8,0.3,0.9,0.7l1.7,4.3
		C12.3,14.2,12.1,14.5,11.9,14.6z M15.4,14.6h-2.2c-0.4,0-0.7-0.3-0.7-0.6V9.3c0-0.4,0.3-0.7,0.7-0.7c0.4,0,0.7,0.3,0.7,0.7v4h1.5
		c0.4,0,0.7,0.3,0.7,0.6C16,14.3,15.7,14.6,15.4,14.6z M20.8,14.1c0,0.2-0.1,0.3-0.3,0.5c-0.1,0.1-0.3,0.1-0.4,0.1
		c-0.2,0-0.4-0.1-0.6-0.3l-1.6-2.1l-0.2,0.2V14c0,0.4-0.3,0.7-0.7,0.7c-0.4,0-0.7-0.3-0.7-0.7V9.3c0-0.4,0.3-0.7,0.7-0.7
		c0.4,0,0.7,0.3,0.7,0.7v1.5l1.9-1.9c0.1-0.1,0.2-0.2,0.4-0.2c0.2,0,0.3,0.1,0.5,0.2c0.1,0.1,0.2,0.3,0.2,0.4c0,0.2,0,0.3-0.2,0.4
		L19,11.3l1.7,2.2C20.8,13.7,20.8,13.9,20.8,14.1z"/>
</svg>
