<svg fill="#263238" width="24" height="24" viewBox="0 0 24 24" xmlns="http://www.w3.org/2000/svg">
	<path d="M16.7,8.5c-2.2,0.1-4.2,0.8-5.7,2.3c-1.6,1.5-2.3,3.4-2.1,5.8c-0.9-0.1-1.7-0.2-2.5-0.3c-0.3,0-0.6,0-0.8,0.1
		c-0.8,0.4-1.5,0.9-2.4,1.5c0.2-0.7,0.3-1.4,0.5-2c0.1-0.5,0.1-0.7-0.3-1c-2.7-1.9-3.8-4.7-3-7.6C1.1,4.6,3,2.9,5.6,2.1
		c3.6-1.2,7.5,0,9.7,2.8C16.1,6,16.5,7.1,16.7,8.5z M6.4,7.6c0-0.5-0.4-1-1-1c-0.6,0-1,0.4-1,1c0,0.6,0.4,1,1,1
		C5.9,8.5,6.4,8.1,6.4,7.6z M11.8,6.5c-0.5,0-1,0.5-1,1c0,0.6,0.5,1,1,1c0.6,0,1-0.4,1-1C12.8,7,12.3,6.5,11.8,6.5z"/>
	<path d="M21.7,22.3c-0.7-0.3-1.4-0.8-2-0.9c-0.7-0.1-1.4,0.3-2.1,0.4c-2.2,0.2-4.1-0.4-5.8-1.9c-3.1-2.8-2.6-7.2,0.9-9.5
		c3.2-2.1,7.8-1.4,10,1.5c1.9,2.5,1.7,5.8-0.7,7.9c-0.7,0.6-0.9,1.1-0.5,1.9C21.6,22,21.6,22.2,21.7,22.3z M13.6,14.6
		c0.4,0,0.8-0.4,0.8-0.8c0-0.5-0.4-0.9-0.8-0.9c-0.5,0-0.9,0.4-0.8,0.9C12.8,14.2,13.2,14.6,13.6,14.6z M18.8,12.9
		c-0.4,0-0.8,0.4-0.8,0.8c0,0.5,0.3,0.9,0.8,0.9c0.5,0,0.8-0.3,0.8-0.8C19.7,13.3,19.3,12.9,18.8,12.9z"/>
</svg>
