<svg  width="288" height="288" viewBox="0 0 288 288" xmlns="http://www.w3.org/2000/svg">
<style type="text/css">
	.st0{opacity:0.1;}
	.st1{fill:#212121;}
	.st2{fill:none;stroke:#212121;stroke-width:2;stroke-linecap:round;stroke-linejoin:round;stroke-miterlimit:2;}
	.st3{fill:none;stroke:#212121;stroke-width:2;stroke-linecap:round;stroke-linejoin:round;stroke-miterlimit:10;}
	.st4{fill:none;stroke:#00E5FF;stroke-width:2;stroke-linecap:round;stroke-linejoin:round;stroke-miterlimit:10;}
</style>
<g class="st0">
	<rect x="160" y="32" class="st1" width="112" height="8"/>
	<rect x="40" y="32" class="st1" width="32" height="8"/>
	<circle class="st1" cx="24" cy="36" r="8"/>
</g>
<g>
	<path class="st2" d="M287,207c0,4.4-3.6,8-8,8H9c-4.4,0-8-3.6-8-8V25c0-4.4,3.6-8,8-8h270c4.4,0,8,3.6,8,8V207z"/>
	<line class="st2" x1="160.4" y1="183" x2="287" y2="183"/>
	<line class="st2" x1="1" y1="183" x2="151.5" y2="183"/>
	<path class="st2" d="M196,249H92c-1.7,0-3,1.3-3,3s1.3,3,3,3h104c1.7,0,3-1.3,3-3S197.7,249,196,249z"/>
	<line class="st2" x1="120" y1="216" x2="112" y2="248"/>
	<line class="st2" x1="168" y1="216" x2="176" y2="248"/>
	<polygon class="st3" points="104,112 272,64 200,176 179.7,162.5 152,192 149,142 	"/>
	<polyline class="st3" points="152,192 155,146 200,176 272,64 104,112 149,142 152,192 179.7,162.5 	"/>
	<polyline class="st3" points="149,142 272,64 155,146 	"/>
</g>
<g>
	<path class="st4" d="M61.1,214.2c-14.3,9.3-18.4,28.4-9.1,42.7c5.7,8.8,15.2,13.8,25,14.1"/>
	<path class="st4" d="M56.5,208.2c-17.8,11.6-22.9,35.4-11.3,53.3c7.2,11.1,19.3,17.3,31.6,17.5"/>
	<path class="st4" d="M52,202.4c-21.3,13.8-27.4,42.3-13.5,63.6c8.7,13.6,23.5,21,38.5,21"/>
	<line class="st4" x1="146" y1="149" x2="56.5" y2="208.2"/>
	<line class="st4" x1="152" y1="153" x2="61.1" y2="214.2"/>
	<line class="st4" x1="202" y1="287" x2="234" y2="287"/>
	<line class="st4" x1="77" y1="279" x2="208" y2="279"/>
	<line class="st4" x1="77" y1="271" x2="184" y2="271"/>
	<line class="st4" x1="77" y1="287" x2="192" y2="287"/>
	<line class="st4" x1="216" y1="279" x2="248" y2="279"/>
	<line class="st4" x1="256" y1="279" x2="272" y2="279"/>
	<line class="st4" x1="192" y1="271" x2="224" y2="271"/>
	<line class="st4" x1="140" y1="145" x2="52" y2="202.4"/>
</g>
</svg>
