<svg  width="288" height="288" viewBox="0 0 288 288" xmlns="http://www.w3.org/2000/svg">
<style type="text/css">
	.st0{fill:none;stroke:#FFFFFF;stroke-width:2;stroke-miterlimit:10;}
	.st1{opacity:5.000000e-02;}
	.st2{fill:#FFFFFF;}
	.st3{opacity:0.1;}
	.st4{fill:none;stroke:#00E5FF;stroke-width:2;stroke-linecap:round;stroke-linejoin:round;stroke-miterlimit:10;}
</style>
<g>
	<path class="st0" d="M25,215H9c-4.4,0-8-3.6-8-8V25c0-4.4,3.6-8,8-8h270c4.4,0,8,3.6,8,8v182c0,4.4-3.6,8-8,8h-88"/>
	<line class="st0" x1="191" y1="183" x2="287" y2="183"/>
	<line class="st0" x1="1" y1="183" x2="25" y2="183"/>
	<path class="st0" d="M191,255h5c1.7,0,3-1.3,3-3s-1.3-3-3-3h-5"/>
	<path class="st0" d="M204,273H12c-1.7,0-3,1.3-3,3s1.3,3,3,3h192c1.7,0,3-1.3,3-3S205.7,273,204,273z"/>
	<path class="st0" d="M183,169c4.4,0,8,3.6,8,8v96H25v-96c0-4.4,3.6-8,8-8H183z"/>
</g>
<g class="st1">
	<rect x="112" y="248" class="st2" width="64" height="12"/>
	<rect x="112" y="232" class="st2" width="64" height="12"/>
	<rect x="112" y="216" class="st2" width="64" height="12"/>
	<rect x="112" y="200" class="st2" width="64" height="12"/>
	<rect x="112" y="181" class="st2" width="16" height="6"/>
	<rect x="136" y="181" class="st2" width="16" height="6"/>
	<rect x="48" y="256" class="st2" width="56" height="4"/>
	<rect x="48" y="248" class="st2" width="48" height="4"/>
	<rect x="48" y="240" class="st2" width="56" height="4"/>
	<rect x="48" y="232" class="st2" width="56" height="4"/>
	<rect x="48" y="224" class="st2" width="40" height="4"/>
	<rect x="48" y="216" class="st2" width="56" height="4"/>
	<rect x="48" y="208" class="st2" width="48" height="4"/>
	<rect x="48" y="200" class="st2" width="56" height="4"/>
	<rect x="160" y="120" class="st2" width="72" height="8"/>
	<rect x="160" y="104" class="st2" width="112" height="8"/>
	<rect x="160" y="88" class="st2" width="112" height="8"/>
	<rect x="160" y="32" class="st2" width="32" height="8"/>
	<rect x="240" y="32" class="st2" width="32" height="8"/>
</g>
<g class="st3">
	<rect x="160" y="181" class="st2" width="16" height="6"/>
	<polygon class="st2" points="52,187 71.1,187 71.8,181 52,181 	"/>
	<circle class="st2" cx="40" cy="184" r="6"/>
	<rect x="40" y="32" class="st2" width="32" height="8"/>
	<rect x="200" y="32" class="st2" width="32" height="8"/>
	<circle class="st2" cx="24" cy="36" r="8"/>
</g>
<g>
	<path class="st4" d="M75.1,156.3c0-4.5,0.1-8.3,0.3-11.4c0.2-3.1,0.8-5.9,1.6-8.4c0.8-2.5,2.1-4.8,3.8-6.9c1.7-2.1,4.1-4.4,7.1-6.8
		c2.2-2,4.4-4.1,6.6-6.4c2.2-2.2,4.2-4.5,6-6.9c1.8-2.4,3.2-4.8,4.3-7.3c1.1-2.5,1.7-4.9,1.7-7.4c0-5.9-1.6-10.2-4.8-13
		c-3.2-2.7-7.8-4.1-14-4.1c-2.3,0-4.6,0.3-6.8,0.9c-2.2,0.6-4.2,1.6-5.9,3C73.4,83.1,72,84.8,71,87s-1.6,4.7-1.7,7.7H42
		c0.1-6.6,1.3-12.4,3.7-17.3c2.4-4.9,5.7-9,9.8-12.2c4.1-3.2,8.9-5.7,14.5-7.3c5.5-1.6,11.5-2.4,18-2.4c7.2,0,13.7,0.8,19.4,2.4
		c5.7,1.6,10.6,4,14.5,7.3c3.9,3.2,6.9,7.2,9,11.9c2.1,4.7,3.1,10.2,3.1,16.5c0,4.6-0.8,8.8-2.3,12.6c-1.6,3.8-3.6,7.3-6.1,10.6
		c-2.5,3.3-5.3,6.4-8.4,9.3c-3.2,3-6.3,5.8-9.5,8.6c-2,1.9-3.5,3.7-4.6,5.2c-1.1,1.5-1.9,3-2.4,4.6s-0.8,3.3-0.9,5.1
		c-0.1,1.9-0.2,4.1-0.2,6.7H75.1z M71.1,185.8c0-2.1,0.4-4.1,1.1-6c0.7-1.9,1.8-3.5,3.1-4.8c1.4-1.4,3-2.4,5-3.2
		c2-0.7,4.2-1.1,6.6-1.1c2.4,0,4.6,0.4,6.6,1.1c2,0.7,3.7,1.8,5,3.2c1.4,1.4,2.4,3,3.2,4.8c0.7,1.9,1.1,3.8,1.1,6
		c0,2.1-0.4,4-1.1,5.8c-0.7,1.8-1.8,3.4-3.2,4.7c-1.4,1.3-3,2.3-5,3.1c-2,0.7-4.2,1.1-6.6,1.1c-2.5,0-4.7-0.4-6.6-1.1
		c-2-0.7-3.6-1.8-5-3.1c-1.4-1.3-2.4-2.9-3.1-4.7C71.5,189.8,71.1,187.9,71.1,185.8z"/>
</g>
</svg>
