<svg  width="288" height="288" viewBox="0 0 288 288" xmlns="http://www.w3.org/2000/svg">
<style type="text/css">
	.st0{fill:none;stroke:#FFFFFF;stroke-width:2;stroke-miterlimit:10;}
	.st1{opacity:5.000000e-02;}
	.st2{fill:#FFFFFF;}
	.st3{opacity:0.1;}
	.st4{fill:none;stroke:#00E5FF;stroke-width:2;stroke-linecap:round;stroke-miterlimit:10;}
	.st5{fill:none;stroke:#00E5FF;stroke-width:2;stroke-linecap:round;stroke-linejoin:round;stroke-miterlimit:10;}
</style>
<g>
	<path class="st0" d="M25,215H9c-4.4,0-8-3.6-8-8V25c0-4.4,3.6-8,8-8h270c4.4,0,8,3.6,8,8v182c0,4.4-3.6,8-8,8h-88"/>
	<line class="st0" x1="191" y1="183" x2="287" y2="183"/>
	<line class="st0" x1="1" y1="183" x2="25" y2="183"/>
	<path class="st0" d="M191,255h5c1.7,0,3-1.3,3-3s-1.3-3-3-3h-5"/>
	<path class="st0" d="M204,273H12c-1.7,0-3,1.3-3,3s1.3,3,3,3h192c1.7,0,3-1.3,3-3S205.7,273,204,273z"/>
	<path class="st0" d="M106.8,169H183c4.4,0,8,3.6,8,8v96H25v-96c0-4.4,3.6-8,8-8h36.2"/>
</g>
<g class="st1">
	<rect x="112" y="248" class="st2" width="64" height="12"/>
	<rect x="112" y="232" class="st2" width="64" height="12"/>
	<rect x="112" y="216" class="st2" width="64" height="12"/>
	<rect x="112" y="200" class="st2" width="64" height="12"/>
	<rect x="112" y="181" class="st2" width="16" height="6"/>
	<rect x="136" y="181" class="st2" width="16" height="6"/>
	<rect x="48" y="256" class="st2" width="56" height="4"/>
	<rect x="48" y="248" class="st2" width="48" height="4"/>
	<rect x="48" y="240" class="st2" width="56" height="4"/>
	<rect x="48" y="232" class="st2" width="56" height="4"/>
	<rect x="48" y="224" class="st2" width="40" height="4"/>
	<rect x="48" y="216" class="st2" width="56" height="4"/>
	<rect x="48" y="208" class="st2" width="48" height="4"/>
	<rect x="48" y="200" class="st2" width="56" height="4"/>
	<rect x="160" y="120" class="st2" width="72" height="8"/>
	<rect x="160" y="104" class="st2" width="112" height="8"/>
	<rect x="160" y="88" class="st2" width="112" height="8"/>
	<rect x="160" y="32" class="st2" width="32" height="8"/>
	<rect x="240" y="32" class="st2" width="32" height="8"/>
</g>
<g class="st3">
	<rect x="160" y="181" class="st2" width="16" height="6"/>
	<rect x="52" y="181" class="st2" width="24" height="6"/>
	<circle class="st2" cx="40" cy="184" r="6"/>
	<rect x="40" y="32" class="st2" width="32" height="8"/>
	<rect x="200" y="32" class="st2" width="32" height="8"/>
	<circle class="st2" cx="24" cy="36" r="8"/>
</g>
<g>
	<path class="st4" d="M95.2,184c0,3.4-2.7,6-6,6h-2c-3.3,0-6-2.6-6-6"/>
	<path class="st4" d="M106.8,161v7c0,9.1-7.1,16-16,16h-5.7c-8.9,0-16-6.9-16-16v-7"/>
	<line class="st5" x1="94.2" y1="155" x2="103.7" y2="106"/>
	<line class="st5" x1="81.8" y1="155" x2="72.3" y2="106"/>
	<path class="st5" d="M70.4,155l-15.3-42l0,0c-2.7-7.5-2.9-15.9,0-23.9c6.6-18.2,26.7-27.5,44.9-20.9s27.5,26.7,20.9,44.9
		c0,0-15.3,42-15.3,42"/>
	<path class="st5" d="M68,161c-1.7,0-3-1.3-3-3c0-1.7,1.3-3,3-3h40c1.7,0,3,1.3,3,3c0,1.7-1.3,3-3,3H68z"/>
	<polyline class="st5" points="84,102 88,106 92,102 	"/>
	<line class="st5" x1="98" y1="106" x2="102" y2="102"/>
	<line class="st5" x1="93" y1="106" x2="97" y2="102"/>
	<line class="st5" x1="78" y1="106" x2="74" y2="102"/>
	<line class="st5" x1="83" y1="106" x2="79" y2="102"/>
</g>
</svg>
