<svg  width="288" height="288" viewBox="0 0 288 288" xmlns="http://www.w3.org/2000/svg">
<style type="text/css">
	.st0{fill:none;stroke:#FFFFFF;stroke-width:2;stroke-miterlimit:10;}
	.st1{fill:none;stroke:#FFFFFF;stroke-width:2;stroke-linecap:round;stroke-miterlimit:10;}
	.st2{fill:none;stroke:#00E5FF;stroke-width:2;stroke-linecap:round;stroke-linejoin:round;stroke-miterlimit:10;}
</style>
<g>
	<path class="st0" d="M279,17c4.4,0,8,3.6,8,8v182c0,4.4-3.6,8-8,8H9c-4.4,0-8-3.6-8-8V25c0-4.4,3.6-8,8-8H279z"/>
	<line class="st0" x1="1" y1="183" x2="287" y2="183"/>
	<path class="st0" d="M196,249H92c-1.7,0-3,1.3-3,3s1.3,3,3,3h104c1.7,0,3-1.3,3-3S197.7,249,196,249z"/>
	<line class="st1" x1="120" y1="216" x2="112" y2="248"/>
	<line class="st1" x1="168" y1="216" x2="176" y2="248"/>
	<path class="st0" d="M232,249c-6.1,0-11,4.9-11,11v16c0,6.1,4.9,11,11,11s11-4.9,11-11v-16C243,253.9,238.1,249,232,249z"/>
	<line class="st1" x1="271" y1="273" x2="243" y2="273"/>
	<line class="st1" x1="221" y1="273" x2="161" y2="273"/>
	<line class="st1" x1="232" y1="256" x2="232" y2="264"/>
</g>
<g>
	<path class="st2" d="M114.7,119.4l-35.5,6.3c-4.4,0.8-8.5-2.1-9.3-6.5l-4.2-23.6c-0.8-4.4,2.1-8.5,6.5-9.3l35.5-6.3L114.7,119.4z"
		/>
	<line class="st2" x1="67.9" y1="107.4" x2="75.7" y2="106"/>
	<line class="st2" x1="68.9" y1="113.3" x2="76.8" y2="111.9"/>
	<line class="st2" x1="66.8" y1="101.5" x2="74.7" y2="100.1"/>
	<path class="st2" d="M166.1,134.7l-3.9,0.7c-2.3-13.1-30.5-19-43.6-16.7l-6.9-39.4c13.1-2.3,37.5-17.5,35.2-30.6l3.9-0.7
		L166.1,134.7z"/>
	<path class="st2" d="M162.9,110.9c10.9-1.9,18.1-12.3,16.2-23.2c-1.9-10.9-12.3-18.1-23.2-16.2"/>
	<path class="st2" d="M104.5,161.8l8.4-1.5c2.5-0.4,3.9-3,3.1-5.3l-12.5-33.6l-16.4,2.9l13,35C100.8,161.1,102.6,162.2,104.5,161.8z
		"/>
	<polygon class="st2" points="179.9,62.1 193.8,54.1 197.8,61 214.5,42.1 200.7,50.1 196.7,43.2 	"/>
	<polygon class="st2" points="191,85.7 206.7,82.9 208.1,90.8 230.3,78.7 214.6,81.5 213.2,73.6 	"/>
	<polygon class="st2" points="188.6,111.6 204.4,114.4 203,122.3 228,118.6 212.3,115.8 213.7,107.9 	"/>
</g>
</svg>
