<svg  width="288" height="288" viewBox="0 0 288 288" xmlns="http://www.w3.org/2000/svg">
<style type="text/css">
	.st0{fill:none;stroke:#00E5FF;stroke-width:2;stroke-linecap:round;stroke-linejoin:round;stroke-miterlimit:10;}
	.st1{fill:none;stroke:#FFFFFF;stroke-width:2;stroke-linecap:round;stroke-linejoin:round;stroke-miterlimit:10;}
	.st2{opacity:0.1;}
	.st3{fill:#FFFFFF;}
	.st4{opacity:5.000000e-02;}
</style>
<path class="st0" d="M200,72V11.2c0-1.5,1.6-2.5,2.9-1.8l25.5,12.8c1.5,0.7,1.5,2.8,0,3.6L200,40"/>
<polyline class="st1" points="256,128 200,72 136,136 "/>
<path class="st1" d="M148,124l-18.6-18.6c-0.8-0.8-2-0.8-2.8,0L63,169"/>
<path class="st1" d="M160,112l22.6-7.5c0.9-0.3,1.8,0,2.3,0.8l13.5,20.2c0.8,1.2,2.5,1.2,3.3,0l13.4-20c0.6-0.8,1.7-1.1,2.6-0.7
	L248,120"/>
<path class="st1" d="M248,136l14.2-7.1c1-0.5,2.2-0.1,2.7,0.9l5.3,10.6c0.7,1.5,2.8,1.5,3.6,0l5.7-11.3c0.3-0.7,1-1.1,1.8-1.1h4.3
	c0.9,0,1.3-1.1,0.7-1.7l-12.9-12.9c-0.8-0.8-2-0.8-2.8,0L232,152"/>
<path class="st1" d="M96,136l22.8-7.6c0.7-0.2,1.5-0.1,2,0.5l5.2,5.2c1,1,2.6,0.7,3.2-0.5l5.9-11.7c0.5-1,1.7-1.4,2.7-0.9l8.9,4.4"
	/>
<line class="st0" x1="217" y1="231" x2="249" y2="231"/>
<line class="st0" x1="191" y1="223" x2="223" y2="223"/>
<line class="st0" x1="191" y1="215" x2="199" y2="215"/>
<line class="st0" x1="191" y1="231" x2="207" y2="231"/>
<line class="st0" x1="231" y1="223" x2="263" y2="223"/>
<line class="st0" x1="271" y1="223" x2="287" y2="223"/>
<line class="st0" x1="207" y1="215" x2="239" y2="215"/>
<line class="st1" x1="25" y1="207" x2="9" y2="223"/>
<g class="st2">
	<rect x="160" y="181" class="st3" width="16" height="6"/>
	<rect x="52" y="181" class="st3" width="24" height="6"/>
	<circle class="st3" cx="40" cy="184" r="6"/>
</g>
<g class="st4">
	<rect x="112" y="248" class="st3" width="64" height="12"/>
	<rect x="112" y="232" class="st3" width="64" height="12"/>
	<rect x="112" y="216" class="st3" width="64" height="12"/>
	<rect x="112" y="200" class="st3" width="64" height="12"/>
	<rect x="112" y="181" class="st3" width="16" height="6"/>
	<rect x="136" y="181" class="st3" width="16" height="6"/>
	<rect x="48" y="256" class="st3" width="56" height="4"/>
	<rect x="48" y="248" class="st3" width="48" height="4"/>
	<rect x="48" y="240" class="st3" width="56" height="4"/>
	<rect x="48" y="232" class="st3" width="56" height="4"/>
	<rect x="48" y="224" class="st3" width="40" height="4"/>
	<rect x="48" y="216" class="st3" width="56" height="4"/>
	<rect x="48" y="208" class="st3" width="48" height="4"/>
	<rect x="48" y="200" class="st3" width="56" height="4"/>
</g>
<path class="st1" d="M204,273H12c-1.7,0-3,1.3-3,3s1.3,3,3,3h192c1.7,0,3-1.3,3-3S205.7,273,204,273z"/>
<path class="st1" d="M25,273v-96c0-4.4,3.6-8,8-8h150c4.4,0,8,3.6,8,8v96H25z"/>
<circle class="st1" cx="49" cy="49" r="40"/>
<line class="st1" x1="49" y1="93" x2="49" y2="97"/>
<line class="st1" x1="49" y1="1" x2="49" y2="5"/>
<line class="st1" x1="56.6" y1="92.3" x2="57.3" y2="96.3"/>
<line class="st1" x1="40.7" y1="1.7" x2="41.4" y2="5.7"/>
<line class="st1" x1="64.1" y1="90.4" x2="65.4" y2="94.1"/>
<line class="st1" x1="32.6" y1="3.9" x2="34" y2="7.7"/>
<line class="st1" x1="71" y1="87.1" x2="73" y2="90.6"/>
<line class="st1" x1="25" y1="7.4" x2="27" y2="10.9"/>
<line class="st1" x1="77.3" y1="82.7" x2="79.9" y2="85.8"/>
<line class="st1" x1="18.1" y1="12.2" x2="20.7" y2="15.3"/>
<line class="st1" x1="82.7" y1="77.3" x2="85.8" y2="79.9"/>
<line class="st1" x1="12.2" y1="18.1" x2="15.3" y2="20.7"/>
<line class="st1" x1="87.1" y1="71" x2="90.6" y2="73"/>
<line class="st1" x1="7.4" y1="25" x2="10.9" y2="27"/>
<line class="st1" x1="90.4" y1="64.1" x2="94.1" y2="65.4"/>
<line class="st1" x1="3.9" y1="32.6" x2="7.7" y2="34"/>
<line class="st1" x1="92.3" y1="56.6" x2="96.3" y2="57.3"/>
<line class="st1" x1="1.7" y1="40.7" x2="5.7" y2="41.4"/>
<line class="st1" x1="93" y1="49" x2="97" y2="49"/>
<line class="st1" x1="1" y1="49" x2="5" y2="49"/>
<line class="st1" x1="92.3" y1="41.4" x2="96.3" y2="40.7"/>
<line class="st1" x1="1.7" y1="57.3" x2="5.7" y2="56.6"/>
<line class="st1" x1="90.4" y1="34" x2="94.1" y2="32.6"/>
<line class="st1" x1="3.9" y1="65.4" x2="7.7" y2="64.1"/>
<line class="st1" x1="87.1" y1="27" x2="90.6" y2="25"/>
<line class="st1" x1="7.4" y1="73" x2="10.9" y2="71"/>
<line class="st1" x1="82.7" y1="20.7" x2="85.8" y2="18.1"/>
<line class="st1" x1="12.2" y1="79.9" x2="15.3" y2="77.3"/>
<line class="st1" x1="77.3" y1="15.3" x2="79.9" y2="12.2"/>
<line class="st1" x1="18.1" y1="85.8" x2="20.7" y2="82.7"/>
<line class="st1" x1="71" y1="10.9" x2="73" y2="7.4"/>
<line class="st1" x1="25" y1="90.6" x2="27" y2="87.1"/>
<line class="st1" x1="64.1" y1="7.7" x2="65.4" y2="3.9"/>
<line class="st1" x1="32.6" y1="94.1" x2="34" y2="90.4"/>
<line class="st1" x1="56.6" y1="5.7" x2="57.3" y2="1.7"/>
<line class="st1" x1="40.7" y1="96.3" x2="41.4" y2="92.3"/>
<circle class="st1" cx="61" cy="44" r="4"/>
<circle class="st1" cx="37" cy="44" r="4"/>
<path class="st1" d="M58.3,70c-2.6,1.9-5.8,3-9.3,3c-3.5,0-6.7-1.1-9.3-3"/>
</svg>
