<svg  width="288" height="288" viewBox="0 0 288 288" xmlns="http://www.w3.org/2000/svg">
<style type="text/css">
	.st0{fill:none;stroke:#FFFFFF;stroke-width:2;stroke-miterlimit:10;}
	.st1{opacity:5.000000e-02;}
	.st2{fill:#FFFFFF;}
	.st3{opacity:0.1;}
	.st4{fill:none;stroke:#00E5FF;stroke-width:2;stroke-linecap:round;stroke-linejoin:round;stroke-miterlimit:10;}
</style>
<g>
	<path class="st0" d="M25,215H9c-4.4,0-8-3.6-8-8V25c0-4.4,3.6-8,8-8h270c4.4,0,8,3.6,8,8v182c0,4.4-3.6,8-8,8h-88"/>
	<line class="st0" x1="191" y1="183" x2="287" y2="183"/>
	<line class="st0" x1="1" y1="183" x2="25" y2="183"/>
	<path class="st0" d="M191,255h5c1.7,0,3-1.3,3-3s-1.3-3-3-3h-5"/>
	<path class="st0" d="M204,273H12c-1.7,0-3,1.3-3,3s1.3,3,3,3h192c1.7,0,3-1.3,3-3S205.7,273,204,273z"/>
	<path class="st0" d="M122,169h61c4.4,0,8,3.6,8,8v96H25v-96c0-4.4,3.6-8,8-8h9"/>
</g>
<g class="st1">
	<rect x="112" y="248" class="st2" width="64" height="12"/>
	<rect x="112" y="232" class="st2" width="64" height="12"/>
	<polygon class="st2" points="114,228 176,228 176,216 122,216 122,220 119.9,225 	"/>
	<rect x="122" y="200" class="st2" width="54" height="12"/>
	<rect x="122" y="181" class="st2" width="54" height="6"/>
	<rect x="48" y="256" class="st2" width="56" height="4"/>
	<rect x="48" y="248" class="st2" width="48" height="4"/>
	<rect x="48" y="240" class="st2" width="56" height="4"/>
	<rect x="48" y="232" class="st2" width="56" height="4"/>
	<rect x="160" y="32" class="st2" width="112" height="8"/>
</g>
<g class="st3">
	<rect x="40" y="32" class="st2" width="32" height="8"/>
	<circle class="st2" cx="24" cy="36" r="8"/>
	<path class="st2" d="M42,178.3c-0.6-0.2-1.3-0.3-2-0.3c-3.3,0-6,2.7-6,6s2.7,6,6,6c0.7,0,1.4-0.1,2-0.3V178.3z"/>
</g>
<rect x="42" y="56" class="st4" width="228" height="20"/>
<ellipse transform="matrix(0.7071 -0.7071 0.7071 0.7071 29.8981 202.1804)" class="st4" cx="259" cy="65" rx="4" ry="4"/>
<line class="st4" x1="261.8" y1="67.8" x2="265.4" y2="71.4"/>
<line class="st4" x1="250" y1="76" x2="250" y2="56"/>
<line class="st4" x1="49" y1="61" x2="49" y2="71"/>
<path class="st4" d="M122,130v90c0,3.9-3.1,7-7,7H49c-3.9,0-7-3.1-7-7V101c0-3.9,3.1-7,7-7h66c3.9,0,7,3.1,7,7v23"/>
<line class="st4" x1="122" y1="207" x2="42" y2="207"/>
<polyline class="st4" points="144,149 144,144 270,144 270,160 144,160 144,155 "/>
<circle class="st4" cx="122" cy="127" r="3"/>
<circle class="st4" cx="144" cy="152" r="3"/>
<polyline class="st4" points="144,124 144,119 270,119 270,135 144,135 144,130 "/>
<circle class="st4" cx="144" cy="127" r="3"/>
<polyline class="st4" points="144,105 144,110 270,110 270,94 144,94 144,99 "/>
<circle class="st4" cx="144" cy="102" r="3"/>
<path class="st4" d="M141,102h-4c-2.2,0-4,1.8-4,4v42c0,2.2,1.8,4,4,4h4"/>
<line class="st4" x1="125" y1="127" x2="141" y2="127"/>
<ellipse transform="matrix(0.7071 -0.7071 0.7071 0.7071 -129.422 121.5394)" class="st4" cx="82" cy="217" rx="6" ry="6"/>
<path class="st4" d="M90,104H74c-1.1,0-2-0.9-2-2l0,0c0-1.1,0.9-2,2-2h16c1.1,0,2,0.9,2,2l0,0C92,103.1,91.1,104,90,104z"/>
<circle class="st4" cx="66" cy="102" r="2"/>
</svg>
