<svg  width="288" height="288" viewBox="0 0 288 288" xmlns="http://www.w3.org/2000/svg">
<style type="text/css">
	.st0{opacity:5.000000e-02;}
	.st1{fill:#FFFFFF;}
	.st2{fill:none;stroke:#FFFFFF;stroke-width:2;stroke-miterlimit:10;}
	.st3{fill:none;stroke:#FFFFFF;stroke-width:2;stroke-linecap:round;stroke-miterlimit:10;}
	.st4{fill:none;stroke:#00E5FF;stroke-width:2;stroke-linecap:round;stroke-linejoin:round;stroke-miterlimit:10;}
</style>
<g class="st0">
	<rect x="120" y="158" class="st1" width="24" height="4"/>
	<rect x="72" y="136" class="st1" width="72" height="4"/>
	<rect x="72" y="128" class="st1" width="56" height="4"/>
	<rect x="72" y="120" class="st1" width="72" height="4"/>
	<rect x="72" y="112" class="st1" width="64" height="4"/>
	<rect x="72" y="104" class="st1" width="72" height="4"/>
	<polygon class="st1" points="72,100 144.7,100 137.7,96 72,96 	"/>
	<polygon class="st1" points="72,92 132.6,92 128.5,88 72,88 	"/>
	<polygon class="st1" points="72,84 125.2,84 122.5,80 72,80 	"/>
	<polygon class="st1" points="72,76 120.3,76 118.6,72 72,72 	"/>
	<polygon class="st1" points="72,68 117.2,68 116.2,64 72,64 	"/>
	<polygon class="st1" points="72,60 115.2,60 115,56 72,56 	"/>
	<polygon class="st1" points="72,52 115,52 115.2,48 72,48 	"/>
	<polygon class="st1" points="72,44 115.8,44 116.6,40 72,40 	"/>
</g>
<g>
	<path class="st2" d="M204.5,17H279c4.4,0,8,3.6,8,8v182c0,4.4-3.6,8-8,8H9c-4.4,0-8-3.6-8-8V25c0-4.4,3.6-8,8-8h120.5"/>
	<line class="st2" x1="1" y1="183" x2="287" y2="183"/>
	<path class="st2" d="M196,249H92c-1.7,0-3,1.3-3,3s1.3,3,3,3h104c1.7,0,3-1.3,3-3S197.7,249,196,249z"/>
	<line class="st3" x1="120" y1="216" x2="112" y2="248"/>
	<line class="st3" x1="168" y1="216" x2="176" y2="248"/>
	<path class="st2" d="M232,249c-6.1,0-11,4.9-11,11v16c0,6.1,4.9,11,11,11s11-4.9,11-11v-16C243,253.9,238.1,249,232,249z"/>
	<line class="st3" x1="271" y1="273" x2="243" y2="273"/>
	<line class="st3" x1="221" y1="273" x2="161" y2="273"/>
	<line class="st3" x1="232" y1="256" x2="232" y2="264"/>
	<path class="st2" d="M133.9,24H166c1.1,0,2,0.9,2,2v71"/>
	<path class="st2" d="M160,104.5V171c0,1.1-0.9,2-2,2H80.8c-0.5,0-1-0.2-1.4-0.6l-22.8-22.8c-0.4-0.4-0.6-0.9-0.6-1.4V30
		c0-1.1,0.9-2,2-2h63.4"/>
	<path class="st2" d="M56,149h22c1.1,0,2,0.9,2,2v22"/>
</g>
<g>
	<path class="st4" d="M203.8,16.2c-20.3-20.3-53.2-20.3-73.5,0c-20.3,20.3-20.3,53.2,0,73.5s53.2,20.3,73.5,0
		C224.1,69.5,224.1,36.5,203.8,16.2z M198.1,84.1c-17.2,17.2-45,17.2-62.2,0c-17.2-17.2-17.2-45,0-62.2c17.2-17.2,45-17.2,62.2,0
		C215.3,39.1,215.3,66.9,198.1,84.1z"/>
	<path class="st4" d="M209,83.7l42.2,42.2c1.6,1.6,1.6,4.1,0,5.7l-5.7,5.7c-1.6,1.6-4.1,1.6-5.7,0L197.7,95"/>
</g>
</svg>
