<svg  width="288" height="288" viewBox="0 0 288 288" xmlns="http://www.w3.org/2000/svg">
<style type="text/css">
	.st0{opacity:5.000000e-02;}
	.st1{fill:#FFFFFF;}
	.st2{fill:none;stroke:#FFFFFF;stroke-width:2;stroke-miterlimit:10;}
	.st3{fill:none;stroke:#FFFFFF;stroke-width:2;stroke-linecap:round;stroke-miterlimit:10;}
	.st4{fill:none;stroke:#00E5FF;stroke-width:2;stroke-linejoin:round;stroke-miterlimit:10;}
	.st5{fill:none;stroke:#00E5FF;stroke-width:2;stroke-linecap:round;stroke-linejoin:round;stroke-miterlimit:10;}
</style>
<g class="st0">
	<rect x="112" y="248" class="st1" width="64" height="12"/>
	<rect x="112" y="232" class="st1" width="64" height="12"/>
	<rect x="112" y="216" class="st1" width="64" height="12"/>
	<rect x="112" y="200" class="st1" width="64" height="12"/>
	<rect x="112" y="181" class="st1" width="16" height="6"/>
	<rect x="136" y="181" class="st1" width="16" height="6"/>
	<rect x="160" y="181" class="st1" width="16" height="6"/>
</g>
<g>
	<line class="st2" x1="121.9" y1="67.6" x2="234.5" y2="67.6"/>
	<path class="st2" d="M204,273H12c-1.7,0-3,1.3-3,3s1.3,3,3,3h192c1.7,0,3-1.3,3-3S205.7,273,204,273z"/>
	<line class="st2" x1="44" y1="169" x2="110" y2="169"/>
	<path class="st3" d="M120,169h63c4.4,0,8,3.6,8,8v96H25v-96c0-4.4,3.6-8,8-8"/>
	<path class="st2" d="M191.2,204.9c24.5-3.4,43.3-24.5,43.3-49.9V63.7c0-7.8-48.1-14.2-55.9-14.2h-0.8c-7.8,0-55.9,6.3-55.9,14.2
		V155c0,4.9,0.7,9.7,2,14.2"/>
	<circle class="st2" cx="178.2" cy="43.2" r="6.3"/>
	<line class="st3" x1="153.4" y1="73.9" x2="153.4" y2="149.5"/>
	<path class="st3" d="M259.7,118V80.2c0-3.5-2.8-6.3-6.3-6.3h-18.9v-6.3h18.9c7,0,12.6,5.6,12.6,12.6V118
		c0,17.4-14.1,31.5-31.5,31.5l0,0v-6.3C248.4,143.2,259.7,131.9,259.7,118z"/>
	<path class="st3" d="M96.7,118V80.2c0-3.5,2.8-6.3,6.3-6.3h18.9v-6.3H103c-7,0-12.6,5.6-12.6,12.6V118c0,17.4,14.1,31.5,31.5,31.5
		l0,0v-6.3C108,143.2,96.7,131.9,96.7,118z"/>
	<path class="st2" d="M191.2,236.9h28c1.3,0,2.4-1.1,2.4-2.4s-1.1-2.4-2.4-2.4h-28"/>
	<path class="st2" d="M210.9,232.2L210.9,232.2c-7.8,0-14.8-3.3-19.7-8.6"/>
</g>
<g>
	<circle class="st4" cx="77" cy="224" r="8"/>
	<circle class="st4" cx="77" cy="224" r="12"/>
	<polyline class="st4" points="79,210 120,169 120,167 112,167 79,200 	"/>
	<polyline class="st4" points="75,200 42,167 33.8,167 33.8,169 75,210 	"/>
	<path class="st4" d="M75,212.2v-12.7c0-1.1,0.9-2,2-2l0,0c1.1,0,2,0.9,2,2v12.7"/>
	<line class="st5" x1="11" y1="54" x2="11" y2="46"/>
	<line class="st5" x1="15" y1="50" x2="7" y2="50"/>
	<line class="st5" x1="43" y1="102" x2="43" y2="94"/>
	<line class="st5" x1="47" y1="98" x2="39" y2="98"/>
	<line class="st5" x1="263" y1="188" x2="263" y2="180"/>
	<line class="st5" x1="267" y1="184" x2="259" y2="184"/>
	<line class="st5" x1="79" y1="164" x2="79" y2="156"/>
	<line class="st5" x1="83" y1="160" x2="75" y2="160"/>
	<line class="st5" x1="175" y1="12" x2="175" y2="4"/>
	<line class="st5" x1="179" y1="8" x2="171" y2="8"/>
	<line class="st5" x1="87" y1="60" x2="87" y2="52"/>
	<line class="st5" x1="91" y1="56" x2="83" y2="56"/>
	<line class="st5" x1="15" y1="252" x2="15" y2="244"/>
	<line class="st5" x1="19" y1="248" x2="11" y2="248"/>
	<line class="st5" x1="271" y1="268" x2="271" y2="260"/>
	<line class="st5" x1="275" y1="264" x2="267" y2="264"/>
</g>
</svg>
