<svg  width="288" height="288" viewBox="0 0 288 288" xmlns="http://www.w3.org/2000/svg">
<style type="text/css">
	.st0{opacity:5.000000e-02;fill:#FFFFFF;enable-background:new    ;}
	.st1{opacity:0.1;fill:#FFFFFF;enable-background:new    ;}
	.st2{fill:none;stroke:#FFFFFF;stroke-width:2;stroke-miterlimit:10;}
	.st3{fill:#00E5FF;}
</style>
<rect x="160" y="32" class="st0" width="112" height="8"/>
<g>
	<rect x="40" y="32" class="st1" width="32" height="8"/>
	<circle class="st1" cx="24" cy="36" r="8"/>
</g>
<g>
	<path class="st2" d="M26,215H9c-4.4,0-8-3.6-8-8V25c0-4.4,3.6-8,8-8h270c4.4,0,8,3.6,8,8v182c0,4.4-3.6,8-8,8h-21.9"/>
	<line class="st2" x1="251.3" y1="183" x2="287" y2="183"/>
	<line class="st2" x1="1" y1="183" x2="26" y2="183"/>
	<path class="st2" d="M225,119h-14c-1.7,0-3-1.3-3-3V95c0-3.3,2.7-6,6-6h8c3.3,0,6,2.7,6,6v21C228,117.6,226.7,119,225,119z"/>
	<path class="st2" d="M210,119v8c0,4.4,3.6,8,8,8s8-3.6,8-8v-8"/>
	<path class="st2" d="M202,127h12.1c0.4,1.7,2,3,3.9,3s3.4-1.3,3.9-3H234"/>
	<path class="st2" d="M208,111l9.1-4.6c0.6-0.3,1.2-0.3,1.8,0l9.1,4.6"/>
	<path class="st2" d="M225,99h-5v1c0,1.1,0.9,2,2,2s2-0.9,2-2v-1"/>
	<path class="st2" d="M211,99h5v1c0,1.1-0.9,2-2,2s-2-0.9-2-2v-1"/>
	<line class="st2" x1="181" y1="203.5" x2="186" y2="176"/>
	<line class="st2" x1="238" y1="264" x2="198.1" y2="264"/>
	<polyline class="st2" points="250,176 266,264 252.9,264 	"/>
	<path class="st2" d="M242,180.8l11.4-8.6c1-0.8,1.6-1.9,1.6-3.2v-38c0-4.4-3.4-8-7.6-8H226"/>
	<path class="st2" d="M210,123h-21.4c-4.2,0-7.6,3.6-7.6,8v38c0,1.3,0.6,2.4,1.6,3.2l11.4,8.6"/>
	<path class="st2" d="M190,147c0,2.2,1.8,4,4,4h4"/>
	<path class="st2" d="M197,167c-2.2,0-4-1.8-4-4v-12"/>
	<line class="st2" x1="196" y1="178" x2="196" y2="166.9"/>
	<path class="st2" d="M186,168c1.8-2.1,4.3-3.5,7.1-3.9"/>
	<path class="st2" d="M246,147c0,2.2-1.8,4-4,4h-4"/>
	<path class="st2" d="M239,167c2.2,0,4-1.8,4-4v-12"/>
	<path class="st2" d="M240,186v4.2c0,0.5-0.2,1-0.6,1.4l-18.6,18.6c-1.6,1.6-4.1,1.6-5.6,0l-18.6-18.6c-0.4-0.4-0.6-0.9-0.6-1.4V186
		"/>
	<path class="st2" d="M226,186h15c0.6,0,1-0.4,1-1v-6c0-0.6-0.4-1-1-1h-15"/>
	<path class="st2" d="M210,178h-15c-0.6,0-1,0.4-1,1v6c0,0.6,0.4,1,1,1h15"/>
	<path class="st2" d="M212,188h12c1.1,0,2-0.9,2-2v-8c0-1.1-0.9-2-2-2h-12c-1.1,0-2,0.9-2,2v8C210,187.1,210.9,188,212,188z"/>
	<line class="st2" x1="240" y1="178" x2="240" y2="166.9"/>
	<path class="st2" d="M250,168c-1.8-2.1-4.3-3.5-7.1-3.9"/>
	<line class="st2" x1="183.2" y1="264" x2="181" y2="276"/>
	<polyline class="st2" points="193,280 215.2,210.2 196.6,191.6 187.6,240 	"/>
	<path class="st2" d="M181,276h8c2.2,0,4,1.8,4,4v5c0,1.1-0.9,2-2,2h-5.9"/>
	<line class="st2" x1="190" y1="252.9" x2="200.9" y2="255"/>
	<path class="st2" d="M191.5,244.4c0.1,1.8,1.5,3.3,3.3,3.6s3.6-0.7,4.3-2.3"/>
	<polyline class="st2" points="243.1,280 220.9,210.2 239.5,191.6 255.1,276 	"/>
	<path class="st2" d="M255.1,276h-8c-2.2,0-4,1.8-4,4v5c0,1.1,0.9,2,2,2h14c1.1,0,2-0.9,2-2v-3C261.1,278.7,258.4,276,255.1,276z"/>
	<line class="st2" x1="250.7" y1="252" x2="235.1" y2="255"/>
	<path class="st2" d="M244.5,244.4c-0.1,1.8-1.5,3.3-3.3,3.6s-3.6-0.7-4.3-2.3"/>
	<line class="st2" x1="107" y1="203.5" x2="102" y2="176"/>
	<line class="st2" x1="50" y1="264" x2="89.9" y2="264"/>
	<polyline class="st2" points="38,176 22,264 35.1,264 	"/>
	<path class="st2" d="M77,119H63c-1.6,0-3-1.3-3-3V83l5,6h10l5-6v33C80,117.6,78.7,119,77,119z"/>
	<path class="st2" d="M62,119v8c0,4.4,3.6,8,8,8s8-3.6,8-8v-8"/>
	<path class="st2" d="M46,180.8l-11.4-8.6c-1-0.8-1.6-1.9-1.6-3.2v-38c0-4.4,3.4-8,7.6-8H62"/>
	<path class="st2" d="M78,123h21.4c4.2,0,7.6,3.6,7.6,8v38c0,1.3-0.6,2.4-1.6,3.2L94,180.8"/>
	<path class="st2" d="M98,147c0,2.2-1.8,4-4,4h-4"/>
	<path class="st2" d="M91,167c2.2,0,4-1.8,4-4v-12"/>
	<line class="st2" x1="92" y1="178" x2="92" y2="166.9"/>
	<path class="st2" d="M102,168c-1.8-2.1-4.3-3.5-7.1-3.9"/>
	<path class="st2" d="M42,147c0,2.2,1.8,4,4,4h4"/>
	<path class="st2" d="M54,127h12.1c0.4,1.7,2,3,3.9,3s3.4-1.3,3.9-3H86"/>
	<path class="st2" d="M49,167c-2.2,0-4-1.8-4-4v-12"/>
	<path class="st2" d="M48,186v4.2c0,0.5,0.2,1,0.6,1.4l18.6,18.6c1.6,1.6,4.1,1.6,5.6,0l18.6-18.6c0.4-0.4,0.6-0.9,0.6-1.4V186"/>
	<path class="st2" d="M62,186H47c-0.6,0-1-0.4-1-1v-6c0-0.6,0.4-1,1-1h15"/>
	<path class="st2" d="M78,178h15c0.6,0,1,0.4,1,1v6c0,0.6-0.4,1-1,1H78"/>
	<path class="st2" d="M76,188H64c-1.1,0-2-0.9-2-2v-8c0-1.1,0.9-2,2-2h12c1.1,0,2,0.9,2,2v8C78,187.1,77.1,188,76,188z"/>
	<line class="st2" x1="48" y1="178" x2="48" y2="166.9"/>
	<path class="st2" d="M38,168c1.8-2.1,4.3-3.5,7.1-3.9"/>
	<line class="st2" x1="104.8" y1="264" x2="107" y2="276"/>
	<polyline class="st2" points="95,280 72.8,210.2 91.4,191.6 100.4,240 	"/>
	<path class="st2" d="M107,276h-8c-2.2,0-4,1.8-4,4v5c0,1.1,0.9,2,2,2h5.9"/>
	<line class="st2" x1="98" y1="252.9" x2="87.1" y2="255"/>
	<path class="st2" d="M96.5,244.4c-0.1,1.8-1.5,3.3-3.3,3.6s-3.6-0.7-4.3-2.3"/>
	<polyline class="st2" points="44.9,280 67.1,210.2 48.5,191.6 32.9,276 	"/>
	<path class="st2" d="M32.9,276h8c2.2,0,4,1.8,4,4v5c0,1.1-0.9,2-2,2h-14c-1.1,0-2-0.9-2-2v-3C26.9,278.7,29.6,276,32.9,276z"/>
	<line class="st2" x1="37.3" y1="252" x2="52.9" y2="255"/>
	<path class="st2" d="M43.5,244.4c0.1,1.8,1.5,3.3,3.3,3.6s3.6-0.7,4.3-2.3"/>
	<path class="st2" d="M60,104l9.1,4.6c0.6,0.3,1.2,0.3,1.8,0L80,104"/>
	<path class="st2" d="M77,99h-5v1c0,1.1,0.9,2,2,2s2-0.9,2-2v-1"/>
	<path class="st2" d="M63,99h5v1c0,1.1-0.9,2-2,2s-2-0.9-2-2v-1"/>
	<path class="st2" d="M151,119h-14c-1.7,0-3-1.3-3-3V92c0-1.7,1.3-3,3-3h14c1.6,0,3,1.3,3,3v24C154,117.6,152.6,119,151,119z"/>
	<line class="st2" x1="148.6" y1="97" x2="154" y2="97"/>
	<line class="st2" x1="134" y1="97" x2="144" y2="97"/>
	<path class="st2" d="M144,95v5c2.8,0,5-2.2,5-5l0,0c0-3.3-2.7-6-6-6"/>
	<path class="st2" d="M136,119v8c0,4.4,3.6,8,8,8s8-3.6,8-8v-8"/>
	<path class="st2" d="M128,127h12.1c0.4,1.7,2,3,3.9,3s3.4-1.3,3.9-3H160"/>
	<polyline class="st2" points="178.8,264 192,264 176,176 	"/>
	<path class="st2" d="M33.5,273H12c-1.7,0-3,1.3-3,3s1.3,3,3,3h15.7"/>
	<line class="st2" x1="92.8" y1="273" x2="47.1" y2="273"/>
	<line class="st2" x1="166.8" y1="273" x2="121.1" y2="273"/>
	<path class="st2" d="M193.3,279H204c1.7,0,3-1.3,3-3s-1.3-3-3-3h-8.8"/>
	<line class="st2" x1="119.2" y1="279" x2="168.7" y2="279"/>
	<line class="st2" x1="45.2" y1="279" x2="94.7" y2="279"/>
	<path class="st2" d="M25,247.5V177c0-4.1,3.1-7.4,7-7.9l1-0.1"/>
	<line class="st2" x1="26" y1="273" x2="26" y2="264"/>
	<line class="st2" x1="124" y1="264" x2="163.9" y2="264"/>
	<polyline class="st2" points="112,176 96,264 109.1,264 	"/>
	<path class="st2" d="M120,180.8l-11.4-8.6c-1-0.8-1.6-1.9-1.6-3.2v-38c0-4.4,3.4-8,7.6-8H136"/>
	<path class="st2" d="M152,123h21.4c4.2,0,7.6,3.6,7.6,8v38c0,1.3-0.6,2.4-1.6,3.2l-11.4,8.6"/>
	<path class="st2" d="M172,147c0,2.2-1.8,4-4,4h-4"/>
	<path class="st2" d="M165,167c2.2,0,4-1.8,4-4v-12"/>
	<line class="st2" x1="166" y1="178" x2="166" y2="166.9"/>
	<path class="st2" d="M176,168c-1.8-2.1-4.3-3.5-7.1-3.9"/>
	<path class="st2" d="M116,147c0,2.2,1.8,4,4,4h4"/>
	<path class="st2" d="M123,167c-2.2,0-4-1.8-4-4v-12"/>
	<path class="st2" d="M122,186v4.2c0,0.5,0.2,1,0.6,1.4l18.6,18.6c1.6,1.6,4.1,1.6,5.6,0l18.6-18.6c0.4-0.4,0.6-0.9,0.6-1.4V186"/>
	<path class="st2" d="M136,186h-15c-0.6,0-1-0.4-1-1v-6c0-0.6,0.4-1,1-1h15"/>
	<path class="st2" d="M152,178h15c0.6,0,1,0.4,1,1v6c0,0.6-0.4,1-1,1h-15"/>
	<path class="st2" d="M150,188h-12c-1.1,0-2-0.9-2-2v-8c0-1.1,0.9-2,2-2h12c1.1,0,2,0.9,2,2v8C152,187.1,151.1,188,150,188z"/>
	<line class="st2" x1="122" y1="178" x2="122" y2="166.9"/>
	<path class="st2" d="M112,168c1.8-2.1,4.3-3.5,7.1-3.9"/>
	<polyline class="st2" points="169,280 146.8,210.2 165.4,191.6 181,276 	"/>
	<path class="st2" d="M181,276h-8c-2.2,0-4,1.8-4,4v5c0,1.1,0.9,2,2,2h14c1.1,0,2-0.9,2-2v-3C187,278.7,184.3,276,181,276z"/>
	<line class="st2" x1="176.6" y1="252" x2="161.1" y2="255"/>
	<path class="st2" d="M170.5,244.4c-0.1,1.8-1.5,3.3-3.3,3.6s-3.6-0.7-4.3-2.3"/>
	<polyline class="st2" points="118.9,280 141.1,210.2 122.5,191.6 106.9,276 	"/>
	<path class="st2" d="M106.9,276h8c2.2,0,4,1.8,4,4v5c0,1.1-0.9,2-2,2h-14c-1.1,0-2-0.9-2-2v-3C100.9,278.7,103.6,276,106.9,276z"/>
	<line class="st2" x1="111.3" y1="252" x2="126.9" y2="255"/>
	<path class="st2" d="M117.5,244.4c0.1,1.8,1.5,3.3,3.3,3.6s3.6-0.7,4.3-2.3"/>
</g>
<g>
	<path class="st3" d="M218,143c1.1,0,2-0.9,2-2s-0.9-2-2-2s-2,0.9-2,2S216.9,143,218,143z"/>
	<path class="st3" d="M222,145h-8c-2.2,0-4,1.8-4,4v10c0,2.2,1.8,4,4,4h11.2c0.1,0,0.2-0.1,0.2-0.2v-1.5c0-0.1-0.1-0.2-0.2-0.2H214
		c-1.1,0-2-0.9-2-2v-3h13.8c0.1,0,0.2-0.1,0.2-0.2V149C226,146.8,224.2,145,222,145z M224,153.8c0,0.1-0.1,0.2-0.2,0.2H212v-5
		c0-1.1,0.9-2,2-2h8c1.1,0,2,0.9,2,2V153.8z"/>
	<path class="st3" d="M70,143c1.1,0,2-0.9,2-2s-0.9-2-2-2s-2,0.9-2,2S68.9,143,70,143z"/>
	<path class="st3" d="M74,145h-8c-2.2,0-4,1.8-4,4v10c0,2.2,1.8,4,4,4h11.2c0.1,0,0.2-0.1,0.2-0.2v-1.5c0-0.1-0.1-0.2-0.2-0.2H66
		c-1.1,0-2-0.9-2-2v-3h13.8c0.1,0,0.2-0.1,0.2-0.2V149C78,146.8,76.2,145,74,145z M76,153.8c0,0.1-0.1,0.2-0.2,0.2H64v-5
		c0-1.1,0.9-2,2-2h8c1.1,0,2,0.9,2,2V153.8z"/>
	<path class="st3" d="M144,143c1.1,0,2-0.9,2-2s-0.9-2-2-2s-2,0.9-2,2S142.9,143,144,143z"/>
	<path class="st3" d="M148,145h-8c-2.2,0-4,1.8-4,4v10c0,2.2,1.8,4,4,4h11.2c0.1,0,0.2-0.1,0.2-0.2v-1.5c0-0.1-0.1-0.2-0.2-0.2H140
		c-1.1,0-2-0.9-2-2v-3h13.8c0.1,0,0.2-0.1,0.2-0.2V149C152,146.8,150.2,145,148,145z M150,153.8c0,0.1-0.1,0.2-0.2,0.2H138v-5
		c0-1.1,0.9-2,2-2h8c1.1,0,2,0.9,2,2V153.8z"/>
</g>
</svg>
