<?xml version="1.0" encoding="utf-8"?>
<!-- Generator: Adobe Illustrator 20.1.0, SVG Export Plug-In . SVG Version: 6.00 Build 0)  -->
<svg version="1.1" id="Слой_1" xmlns="http://www.w3.org/2000/svg" xmlns:xlink="http://www.w3.org/1999/xlink" x="0px" y="0px"
	 viewBox="0 0 104 84" style="enable-background:new 0 0 104 84;" xml:space="preserve">
<style type="text/css">
	.st0{fill:#FFFFFF;}
</style>
<g>
</g>
<path class="st0" d="M52.3,10c-0.1,0-0.2,0-0.3,0c-0.1,0-0.2,0-0.3,0v4.2l-6,3.4c0.2,0.2,0.2,0.3,0.3,0.5l5.7-3.3v6.5
	c0.1,0,0.2,0,0.3,0c0.1,0,0.2,0,0.3,0v-6.4l5.7,3.3c0.1-0.2,0.2-0.3,0.3-0.5l-6-3.4C52.3,14.2,52.3,10,52.3,10z M52.3,30.9v-4.3
	c-0.2,0-0.4,0-0.6,0v4.3c0.1,0,0.2,0,0.3,0C52.1,30.9,52.2,30.9,52.3,30.9 M50.8,32.6c-0.2,0.2-0.2,0.3-0.2,0.5
	c0,0.2-0.1,0.2-0.1,0.4c0,0.9,0.7,1.5,1.5,1.5c0.1,0,0.2,0,0.3,0c0.7-0.2,1.2-0.8,1.2-1.5c0-0.2,0-0.3-0.1-0.4
	c-0.1-0.2-0.2-0.4-0.2-0.5c-0.3-0.4-0.7-0.5-1.2-0.5c-0.1,0-0.2,0-0.3,0C51.4,32.1,51.1,32.4,50.8,32.6 M53.4,23.5
	c-0.2-0.6-0.8-1-1.4-1c-0.9,0-1.5,0.6-1.5,1.5l0,0c0,0.2,0,0.3,0.1,0.5c0.1,0.2,0.2,0.4,0.3,0.5c0.2,0.2,0.5,0.4,0.9,0.5
	c0.1,0,0.2,0,0.3,0c0.1,0,0.2,0,0.3,0c0.3-0.1,0.6-0.2,0.9-0.5c0.2-0.2,0.4-0.6,0.4-1C53.5,23.8,53.5,23.7,53.4,23.5 M54.2,25.6
	l5.6,3.3L54.2,32c0.1,0.2,0.2,0.3,0.3,0.5l5.9-3.4l3.7,2.2c0.1-0.2,0.2-0.4,0.3-0.5l-3.7-2.1v-6.8c-0.1,0-0.2,0-0.3,0
	c-0.1,0-0.2,0-0.3,0v6.4L54.4,25C54.4,25.2,54.2,25.4,54.2,25.6 M57.9,20.3l-3.7,2.2c0.2,0.2,0.2,0.3,0.3,0.5l3.7-2.2
	C58,20.6,58,20.4,57.9,20.3 M60.1,20.7c0.1,0,0.2,0,0.3,0c0.9,0,1.5-0.7,1.5-1.5l0,0c0-0.2,0-0.4-0.1-0.5s-0.2-0.4-0.3-0.5
	c-0.3-0.3-0.7-0.5-1.1-0.5s-0.8,0.2-1.1,0.5c-0.2,0.2-0.2,0.3-0.3,0.5c-0.2,0.3-0.2,0.7,0,1c0.1,0.2,0.2,0.4,0.3,0.5
	C59.4,20.4,59.8,20.6,60.1,20.7 M46.1,20.3c-0.1,0.2-0.2,0.3-0.3,0.5l3.7,2.2c0.1-0.2,0.2-0.4,0.3-0.5
	C49.8,22.4,46.1,20.3,46.1,20.3z M49.5,25.1l-5.7,3.3v-6.4c-0.1,0-0.2,0-0.3,0c-0.1,0-0.2,0-0.3,0v6.8l-3.7,2.1
	c0.1,0.2,0.2,0.3,0.3,0.5l3.7-2.2l5.9,3.4c0.1-0.2,0.2-0.4,0.3-0.5l-5.5-3.3l5.6-3.3C49.8,25.4,49.6,25.2,49.5,25.1"/>
<path class="st0" d="M67.5,13c-0.5,0-1.1,0.2-1.4,0.5L55.6,7.4c-0.2,0.4-0.3,0.7-0.5,1l10.5,6c-0.2,0.5-0.1,0.9,0.1,1.3l-3.1,1.8
	c0.2,0.2,0.2,0.3,0.3,0.5l3.1-1.8c0.2,0.3,0.6,0.6,1.1,0.7v12.1c0.2,0,0.4-0.1,0.6-0.1s0.4,0,0.6,0.1V17c1.1-0.3,1.7-1.5,1.4-2.6
	C69.3,13.5,68.4,13,67.5,13 M64.5,35.4c-0.2-0.3-0.5-0.6-0.6-1l-10.5,6l0,0c-0.3-0.3-0.7-0.5-1.2-0.5v-3.6c-0.2,0-0.4,0-0.6,0v3.6
	c-0.4,0.1-0.9,0.2-1.2,0.5l0,0l-10.5-6c-0.2,0.4-0.3,0.7-0.6,1l10.5,6l0,0c-0.1,0.2-0.1,0.3-0.1,0.5c0,1.2,0.9,2.1,2.1,2.1
	c1.2,0,2.1-0.9,2.1-2.1c0-0.2,0-0.3-0.1-0.5l0,0L64.5,35.4L64.5,35.4z M43.6,20.7c0.1,0,0.2,0,0.3,0c0.3-0.1,0.6-0.2,0.9-0.5
	c0.2-0.2,0.2-0.3,0.3-0.5c0.1-0.3,0.1-0.7,0-1c-0.1-0.2-0.2-0.4-0.3-0.5c-0.3-0.3-0.7-0.5-1.1-0.5c-0.5,0-0.9,0.2-1.1,0.5
	c-0.2,0.2-0.2,0.3-0.3,0.5c-0.1,0.2-0.1,0.3-0.1,0.5C42.2,20,42.8,20.7,43.6,20.7L43.6,20.7"/>
<path class="st0" d="M35.9,17v12.1c0.2,0,0.4-0.1,0.6-0.1c0.2,0,0.4,0,0.6,0.1V17c0.4-0.2,0.8-0.4,1.1-0.7l0,0l3.1,1.8
	c0.1-0.2,0.2-0.4,0.3-0.5l-3.1-1.8l0,0c0.1-0.2,0.2-0.5,0.2-0.8c0-0.2,0-0.4-0.1-0.5l0,0l10.5-6c-0.2-0.3-0.5-0.6-0.5-1l-10.5,6l0,0
	c-0.4-0.4-0.9-0.5-1.4-0.5c-1.2,0-2.1,0.9-2.1,2.1C34.4,16,35,16.8,35.9,17"/>
<path class="st0" d="M50.5,7.6c0.3,0.3,0.7,0.5,1.2,0.6c0.1,0,0.2,0,0.3,0c0.1,0,0.2,0,0.3,0c0.5-0.1,0.9-0.3,1.2-0.6
	c0.3-0.3,0.5-0.6,0.5-1c0-0.2,0.1-0.3,0.1-0.5C54.1,4.9,53.2,4,52,4l0,0c-1.2,0-2.1,0.9-2.1,2.1l0,0c0,0.2,0,0.3,0.1,0.5
	C50.1,6.9,50.2,7.3,50.5,7.6 M68.1,31c-0.4-0.1-0.8-0.1-1.2,0c-0.4,0.2-0.8,0.4-1.1,0.7c-0.2,0.2-0.2,0.3-0.3,0.5
	c-0.1,0.2-0.2,0.5-0.2,0.8c0,0.5,0.2,1.1,0.6,1.5c0.9,0.8,2.2,0.8,2.9,0c0.4-0.4,0.6-0.9,0.6-1.5C69.6,32,69,31.2,68.1,31
	 M38.1,31.7c-0.3-0.3-0.6-0.6-1.1-0.7c-0.2-0.1-0.4-0.1-0.6-0.1c-0.2,0-0.4,0-0.6,0.1c-0.9,0.2-1.5,1.1-1.5,2c0,1.2,0.9,2.1,2.1,2.1
	c0.5,0,1.1-0.2,1.5-0.6c0.6-0.6,0.8-1.5,0.5-2.2C38.4,32,38.3,31.8,38.1,31.7"/>
<g>
	<path class="st0" d="M0.1,48.4L0.2,65h1.6L1.7,48.4H0.1z M17.7,50.2c-0.9-0.4-1.8-0.5-2.7-0.5c-1.3,0-2.5,0.3-3.5,0.9
		c-1.1,0.6-1.9,1.5-2.5,2.5c-0.7,1.1-1,2.3-1,3.6c0,1.3,0.3,2.4,1,3.5c0.6,1,1.5,1.9,2.6,2.5s2.3,0.9,3.5,0.9c0.9,0,1.8-0.2,2.7-0.5
		c0.9-0.4,1.6-0.9,2.3-1.5l1,1.1c-0.8,0.8-1.8,1.4-2.8,1.8s-2.1,0.7-3.3,0.7c-1.6,0-3-0.4-4.3-1.1S8.3,62.3,7.6,61
		c-0.8-1.3-1.2-2.7-1.2-4.3c0-1.5,0.4-3,1.1-4.2c0.8-1.3,1.8-2.3,3.1-3.1s2.8-1.1,4.3-1.2c1.1,0,2.2,0.2,3.3,0.6c1,0.4,2,1,2.8,1.7
		l-1,1.1C19.4,51.1,18.6,50.5,17.7,50.2"/>
	<g transform="translate(86 8.206)">
		<path class="st0" d="M-57.3,42.3c-1.1,0.6-1.9,1.5-2.6,2.5c-0.6,1.1-0.9,2.2-0.9,3.5c0,1.2,0.3,2.5,1,3.5c0.6,1.1,1.5,1.9,2.6,2.5
			c1.1,0.6,2.3,0.9,3.5,0.9s2.4-0.3,3.5-1c1.1-0.6,1.9-1.5,2.5-2.6s0.9-2.3,0.9-3.5c0-1.3-0.3-2.4-1-3.5c-0.6-1-1.5-1.9-2.6-2.5
			s-2.3-0.9-3.5-0.9C-55,41.4-56.2,41.7-57.3,42.3 M-49.4,41c1.3,0.7,2.4,1.8,3.2,3c0.8,1.3,1.2,2.7,1.2,4.2s-0.4,3-1.1,4.3
			c-0.8,1.3-1.8,2.4-3.1,3.1c-1.3,0.8-2.8,1.2-4.4,1.2c-1.6,0-3-0.4-4.4-1.1c-1.3-0.7-2.4-1.8-3.2-3.1c-0.8-1.3-1.2-2.7-1.2-4.3
			c0-1.5,0.4-3,1.1-4.2c0.8-1.3,1.8-2.3,3.1-3.1s2.8-1.1,4.4-1.2C-52.2,39.9-50.8,40.3-49.4,41"/>
	</g>
	<path class="st0" d="M51.5,61.9c0.4-0.4,0.6-0.9,0.6-1.6s-0.2-1.2-0.6-1.6c-0.4-0.4-0.8-0.6-1.3-0.5c-0.5,0-0.9,0.2-1.3,0.6
		c-0.4,0.4-0.6,0.9-0.6,1.6s0.2,1.2,0.6,1.6c0.4,0.4,0.8,0.6,1.3,0.5S51.1,62.3,51.5,61.9L51.5,61.9z M48.2,57
		c0.6-0.8,1.4-1.3,2.5-1.3s2.1,0.4,2.9,1.2c0.8,0.8,1.2,1.9,1.2,3.2c0,1.3-0.3,2.4-1.1,3.3s-1.7,1.3-2.8,1.3s-2-0.4-2.6-1.4v1.3
		h-2.7L45.4,53h2.7C48.1,53,48.2,57,48.2,57z M62.1,61.9c0.4-0.4,0.6-0.9,0.6-1.6s-0.2-1.2-0.6-1.6c-0.4-0.4-0.8-0.5-1.3-0.5
		s-0.9,0.2-1.3,0.6c-0.4,0.4-0.6,0.9-0.6,1.6s0.2,1.2,0.6,1.6c0.4,0.4,0.8,0.5,1.3,0.5S61.8,62.3,62.1,61.9 M57.3,63.6
		c-0.8-0.8-1.2-1.9-1.2-3.2c0-1.3,0.3-2.4,1.1-3.3s1.7-1.3,2.8-1.3s2,0.4,2.6,1.2v-1.2h2.7l0.2,8.8h-2.7v-1.3
		c-0.6,0.9-1.5,1.4-2.6,1.4C59.1,64.8,58.1,64.4,57.3,63.6 M74,55.8V58l-3.3,4.4l3.4-0.1v2.2l-6.5,0.1v-2.2l3.3-4.4l-3.4,0.1v-2.2
		L74,55.8z M81.7,61.9c0.4-0.4,0.6-0.9,0.6-1.6s-0.2-1.2-0.6-1.6s-0.8-0.5-1.3-0.5s-0.9,0.2-1.3,0.6s-0.6,0.9-0.6,1.6
		s0.2,1.2,0.6,1.6s0.8,0.5,1.3,0.5C80.9,62.5,81.3,62.3,81.7,61.9 M76.9,63.6c-0.8-0.8-1.2-1.9-1.2-3.2c0-1.3,0.3-2.4,1.1-3.3
		c0.8-0.9,1.7-1.3,2.8-1.3c1.1,0,2,0.4,2.6,1.2v-1.2h2.7l0.2,8.8h-2.7v-1.3c-0.6,0.9-1.5,1.4-2.6,1.4C78.6,64.8,77.7,64.4,76.9,63.6
		 M92.9,61.9c0.4-0.4,0.6-0.9,0.6-1.6s-0.2-1.2-0.6-1.6s-0.8-0.5-1.3-0.5s-0.9,0.2-1.3,0.6s-0.6,0.9-0.6,1.6s0.2,1.2,0.6,1.6
		s0.8,0.5,1.3,0.5S92.5,62.3,92.9,61.9 M88.1,63.6c-0.8-0.8-1.2-1.9-1.2-3.2c0-1.3,0.3-2.4,1.1-3.3c0.8-0.9,1.7-1.3,2.8-1.3
		c1.1,0,2,0.4,2.6,1.2v-1.2h2.7l0.2,8.8h-2.7v-1.3c-0.6,0.9-1.5,1.4-2.6,1.4C89.8,64.8,88.9,64.4,88.1,63.6 M101.4,55.8v1.6
		c0.6-1.2,1.4-1.8,2.5-1.8v2.8h-0.7c-0.6,0-1.1,0.2-1.4,0.5s-0.4,0.8-0.4,1.6l0.1,4.2h-2.7l-0.2-8.8L101.4,55.8L101.4,55.8z"/>
	<path class="st0" d="M0.7,76.5C0.2,76,0,75.3,0,74.5s0.2-1.5,0.7-2s1.1-0.7,1.9-0.7c0.6,0,1.2,0.2,1.6,0.5C4.6,72.6,4.9,73,5,73.6
		H3.8c-0.2-0.6-0.6-0.8-1.3-0.8c-0.4,0-0.8,0.2-1.1,0.5S1,74.1,1,74.6c0,0.6,0.1,1,0.4,1.3s0.6,0.5,1.1,0.5c0.6,0,1.1-0.3,1.3-0.8H5
		c-0.2,0.5-0.4,1-0.9,1.3c-0.4,0.3-0.9,0.5-1.6,0.5C1.8,77.2,1.2,77,0.7,76.5 M7.2,71.9v0.9c0.3-0.7,0.9-1,1.6-1v1.1H8.5
		c-0.4,0-0.8,0.1-1,0.3c-0.2,0.2-0.3,0.6-0.3,1.1v2.8H6.1v-5.2L7.2,71.9L7.2,71.9z M11.3,77.1l-2.1-5.2h1.2l1.5,4l1.6-4h1.1
		l-3.3,7.7h-1.1L11.3,77.1z M19.2,75.8c0.3-0.3,0.5-0.8,0.5-1.3s-0.2-1-0.5-1.3s-0.7-0.5-1.1-0.5s-0.8,0.2-1.1,0.5
		c-0.3,0.3-0.5,0.7-0.5,1.3c0,0.5,0.2,1,0.5,1.3s0.7,0.5,1.1,0.5S18.9,76.2,19.2,75.8 M18.3,71.9c0.7,0,1.3,0.3,1.8,0.8
		s0.7,1.1,0.7,1.9s-0.2,1.4-0.7,2c-0.5,0.5-1.1,0.8-1.8,0.8c-0.4,0-0.8-0.1-1.1-0.3c-0.3-0.2-0.6-0.5-0.7-0.8v3.5h-1.1v-7.7h1.1V73
		c0.2-0.3,0.4-0.5,0.7-0.7C17.5,72,17.9,71.9,18.3,71.9 M24.5,72.9h-1.3v2.9c0,0.2,0,0.3,0.1,0.4s0.3,0.1,0.5,0.1h0.7v0.9h-0.9
		c-1,0-1.5-0.5-1.5-1.5v-2.9h-0.6v-0.9h0.6v-1.3h1.1v1.3h1.3L24.5,72.9L24.5,72.9z M28.9,75.9c0.3-0.3,0.5-0.8,0.5-1.3
		c0-0.6-0.2-1-0.5-1.3s-0.7-0.5-1.1-0.5S27,73,26.7,73.3c-0.3,0.3-0.5,0.8-0.5,1.3c0,0.6,0.1,1,0.4,1.3s0.7,0.5,1.1,0.5
		C28.2,76.4,28.6,76.2,28.9,75.9 M27.7,77.3c-0.8,0-1.4-0.3-1.9-0.8s-0.7-1.2-0.7-2s0.3-1.5,0.8-2s1.2-0.7,1.9-0.7
		c0.8,0,1.4,0.3,1.9,0.8s0.8,1.2,0.8,2s-0.3,1.5-0.8,2C29.2,77.1,28.5,77.3,27.7,77.3 M35.6,72v0.8c0.4-0.6,0.9-0.9,1.7-0.9
		c0.4,0,0.8,0.1,1.1,0.3c0.3,0.2,0.6,0.5,0.7,0.8c0.2-0.3,0.4-0.6,0.8-0.8c0.3-0.2,0.7-0.3,1.1-0.3c0.6,0,1.1,0.2,1.5,0.6
		s0.6,0.9,0.6,1.7v3.1H42v-2.9c0-0.5-0.1-0.8-0.4-1.1c-0.2-0.3-0.6-0.4-1-0.4s-0.7,0.1-1,0.4c-0.2,0.2-0.4,0.6-0.4,1.1v2.9h-1.1
		v-2.9c0-0.5-0.1-0.8-0.4-1.1c-0.2-0.3-0.6-0.4-1-0.4s-0.7,0.1-1,0.4c-0.2,0.2-0.4,0.6-0.4,1.1v2.9h-1.1v-5.2L35.6,72L35.6,72z
		 M47.9,75.9c0.3-0.3,0.5-0.7,0.5-1.3c0-0.5-0.2-1-0.5-1.3s-0.7-0.5-1.1-0.5c-0.4,0-0.8,0.2-1.1,0.5s-0.5,0.7-0.5,1.3
		c0,0.5,0.2,1,0.5,1.3s0.7,0.5,1.1,0.5S47.6,76.3,47.9,75.9 M44.8,76.6c-0.5-0.5-0.7-1.2-0.7-2s0.2-1.4,0.7-1.9s1.1-0.7,1.8-0.7
		c0.4,0,0.8,0.1,1.1,0.3c0.3,0.2,0.6,0.4,0.7,0.7v-0.9h1.1v5.2h-1.1v-1c-0.2,0.3-0.4,0.6-0.7,0.8c-0.3,0.2-0.7,0.3-1.1,0.3
		C45.9,77.4,45.2,77.1,44.8,76.6 M52,72.1V73c0.3-0.7,0.9-1,1.6-1v1.1h-0.3c-0.4,0-0.8,0.1-1,0.3C52.1,73.6,52,74,52,74.5v2.8h-1.1
		v-5.2L52,72.1L52,72.1z M55.7,77.3h-1.1v-7h1.1v4.1l1.9-2.3h1.5l-2.4,2.6l2.4,2.6h-1.5L55.7,75V77.3z M63.2,73.3
		c-0.3-0.3-0.6-0.4-1-0.4s-0.7,0.1-1,0.4s-0.4,0.6-0.5,1h2.9C63.6,73.9,63.5,73.6,63.2,73.3 M62.1,77.4c-0.8,0-1.4-0.3-1.9-0.7
		c-0.5-0.5-0.7-1.2-0.7-2s0.2-1.5,0.7-2s1.1-0.7,1.9-0.7c0.8,0,1.4,0.2,1.9,0.7s0.7,1.1,0.7,1.9c0,0.2,0,0.4,0,0.5h-4
		c0,0.4,0.2,0.8,0.4,1c0.3,0.3,0.6,0.4,1,0.4c0.6,0,1-0.2,1.3-0.7h1.2c-0.2,0.5-0.5,0.9-0.9,1.2C63.3,77.3,62.8,77.4,62.1,77.4
		 M68.4,73h-1.3v2.9c0,0.2,0,0.3,0.1,0.4s0.3,0.1,0.5,0.1h0.7v0.9h-0.9c-1,0-1.5-0.5-1.5-1.5v-2.9h-0.6V72H66v-1.3h1.1V72h1.3
		L68.4,73L68.4,73z M72.3,77.4v-5.2h1.1v5.2H72.3z M73.5,70.7c0,0.2-0.1,0.4-0.2,0.5s-0.3,0.2-0.5,0.2s-0.4-0.1-0.5-0.2
		s-0.2-0.3-0.2-0.5s0.1-0.4,0.2-0.5s0.3-0.2,0.5-0.2s0.4,0.1,0.5,0.2C73.5,70.4,73.6,70.5,73.5,70.7L73.5,70.7z M75.9,72.1v0.8
		c0.4-0.6,0.9-0.9,1.7-0.9c0.6,0,1.1,0.2,1.5,0.6s0.6,0.9,0.6,1.6v3.1h-1.1v-2.9c0-0.5-0.1-0.8-0.4-1.1c-0.2-0.3-0.6-0.4-1-0.4
		s-0.7,0.1-1,0.4c-0.2,0.2-0.4,0.6-0.4,1.1v2.9h-1.1v-5.2H75.9z M80.8,73.6c0-0.4,0.2-0.8,0.6-1.1c0.4-0.3,0.9-0.5,1.5-0.5
		s1.1,0.2,1.5,0.5s0.6,0.7,0.6,1.2h-1.1c0-0.3-0.1-0.5-0.3-0.6c-0.2-0.1-0.4-0.2-0.7-0.2c-0.3,0-0.5,0.1-0.7,0.2s-0.3,0.3-0.3,0.5
		s0.1,0.4,0.3,0.5c0.2,0.1,0.5,0.2,0.8,0.3c0.3,0.1,0.6,0.1,0.9,0.2s0.6,0.2,0.8,0.5c0.2,0.2,0.3,0.5,0.3,0.9c0,0.5-0.2,0.8-0.6,1.1
		c-0.4,0.3-0.9,0.4-1.5,0.4s-1.1-0.1-1.5-0.4s-0.6-0.7-0.6-1.2h1.1c0,0.3,0.1,0.5,0.3,0.6c0.2,0.1,0.4,0.2,0.7,0.2
		c0.3,0,0.5-0.1,0.7-0.2s0.3-0.3,0.3-0.5s-0.1-0.4-0.3-0.5c-0.2-0.1-0.5-0.2-0.8-0.3c-0.3-0.1-0.6-0.1-0.9-0.2s-0.6-0.2-0.8-0.4
		C80.9,74.3,80.8,74,80.8,73.6 M86.2,77.4v-5.2h1.1v5.2H86.2z M87.4,70.8c0,0.2-0.1,0.4-0.2,0.5s-0.3,0.2-0.5,0.2s-0.4-0.1-0.5-0.2
		C86.1,71.1,86,71,86,70.8s0.1-0.4,0.2-0.5s0.3-0.2,0.5-0.2s0.4,0.1,0.5,0.2C87.4,70.4,87.4,70.6,87.4,70.8L87.4,70.8z M92.2,76.1
		c0.3-0.3,0.5-0.7,0.5-1.3c0-0.5-0.2-1-0.5-1.3S91.5,73,91.1,73s-0.8,0.2-1.1,0.5c-0.3,0.3-0.5,0.7-0.5,1.3c0,0.5,0.2,1,0.5,1.3
		s0.7,0.5,1.1,0.5S91.9,76.4,92.2,76.1 M89.1,76.7c-0.5-0.5-0.7-1.2-0.7-2s0.2-1.4,0.7-1.9s1.1-0.7,1.8-0.7c0.4,0,0.8,0.1,1.1,0.3
		c0.3,0.2,0.6,0.4,0.7,0.7v-0.9h1.1v5.3c0,0.7-0.2,1.3-0.7,1.8S92,80,91.2,80s-1.4-0.2-1.8-0.5c-0.5-0.3-0.8-0.8-0.8-1.4h1.1
		c0.1,0.3,0.3,0.5,0.5,0.7c0.3,0.2,0.6,0.3,1,0.3s0.7-0.1,1-0.4s0.4-0.7,0.4-1.2v-1.1c-0.2,0.3-0.4,0.6-0.7,0.8
		c-0.3,0.2-0.7,0.3-1.1,0.3C90.1,77.5,89.5,77.2,89.1,76.7 M96.3,70.4V73c0.4-0.6,0.9-0.9,1.7-0.9c0.6,0,1.1,0.2,1.5,0.6
		s0.6,0.9,0.6,1.6v3.1H99v-2.9c0-0.5-0.1-0.8-0.4-1.1c-0.2-0.3-0.6-0.4-1-0.4s-0.7,0.1-1,0.4c-0.2,0.2-0.4,0.6-0.4,1.1v2.9h-1.1v-7
		L96.3,70.4z"/>
	<g transform="translate(184 37.206)">
		<path class="st0" d="M-80,35.9h-1.3v2.9c0,0.2,0,0.3,0.1,0.4c0.1,0.1,0.3,0.1,0.5,0.1h0.7v0.9h-0.9c-1,0-1.5-0.5-1.5-1.5v-2.9H-83
			v-0.9h0.6v-1.3h1.1v1.3h1.3L-80,35.9L-80,35.9z"/>
	</g>
</g>
</svg>
