<svg fill="#fff" width="104" height="40" viewBox="0 0 104 40" xmlns="http://www.w3.org/2000/svg">
	<path d="M19.1,10.7c-0.2-0.1-0.3-0.2-0.5-0.2c-0.2,0-0.4,0.1-0.5,0.2c-1.2,1.1-2.1,2.4-2.6,3.8c-2.7-0.7-5.5-0.7-8.2,0
		c-0.6-1.4-1.5-2.7-2.6-3.8c-0.2-0.1-0.3-0.2-0.5-0.2c-0.2,0-0.4,0.1-0.5,0.2c-2.2,2.1-3.4,5-3.4,8C0,25,5,30,11.3,30
		s11.3-5,11.3-11.3C22.5,15.7,21.3,12.9,19.1,10.7z M16,19.6c0-0.3,0-0.5,0-0.8c0-2.4,0.9-4.7,2.5-6.4c1.4,1.6,2.3,3.6,2.5,5.7
		C19.2,18.2,17.5,18.7,16,19.6z M14.9,16c-0.2,0.9-0.4,1.8-0.4,2.8c0,0.6,0.1,1.2,0.2,1.8c-1.5,1.2-2.7,2.9-3.4,4.7
		c-0.7-1.8-1.9-3.5-3.4-4.7C8,20,8,19.4,8,18.8c0-1-0.1-1.9-0.4-2.8C10,15.4,12.5,15.4,14.9,16z M4,12.3c1.6,1.8,2.5,4,2.5,6.4
		c0,0.3,0,0.5,0,0.8C5,18.7,3.3,18.2,1.5,18C1.7,15.9,2.5,13.9,4,12.3z M1.5,19.5c4.7,0.4,8.5,4.2,8.9,8.9
		C5.7,28.1,1.9,24.3,1.5,19.5z M12,28.5c0.4-4.7,4.2-8.5,8.9-8.9C20.6,24.3,16.8,28.1,12,28.5z"/>
	<path d="M38.3,12.3c-0.2,0.3-0.4,0.7-0.4,1.1v1.2h2.3c0.4,0,0.8,0.1,1,0.4c0.3,0.3,0.4,0.6,0.4,1c0,0.4-0.1,0.8-0.4,1
		c-0.3,0.3-0.6,0.4-1,0.4h-2.3v9.2c0,0.5-0.1,0.8-0.4,1.1c-0.3,0.3-0.7,0.5-1.1,0.5s-0.8-0.2-1.1-0.5c-0.3-0.3-0.4-0.7-0.4-1.1v-9.2
		h-1.4c-0.4,0-0.8-0.1-1-0.4c-0.3-0.3-0.4-0.6-0.4-1c0-0.4,0.1-0.8,0.4-1c0.3-0.3,0.6-0.4,1-0.4h1.4v-1.2c0-1.3,0.4-2.4,1.3-3.2
		C37,9.4,38.3,9,40,9c0.6,0,1.2,0.1,1.7,0.4c0.5,0.3,0.7,0.7,0.7,1.2c0,0.4-0.1,0.8-0.4,1S41.4,12,41.1,12c-0.1,0-0.2,0-0.3,0
		s-0.2,0-0.3-0.1c-0.4-0.1-0.8-0.2-1-0.2C38.9,11.8,38.5,11.9,38.3,12.3z"/>
	<path d="M55.6,25c-0.6,1.1-1.5,2-2.5,2.6c-1.1,0.6-2.3,0.9-3.5,0.9c-1.3,0-2.5-0.3-3.5-0.9C44.9,27,44,26.1,43.4,25
		c-0.6-1.1-0.9-2.3-0.9-3.7c0-1.4,0.3-2.6,0.9-3.7c0.6-1.1,1.5-2,2.5-2.6c1.1-0.6,2.2-0.9,3.5-0.9c1.3,0,2.5,0.3,3.5,0.9
		c1.1,0.6,1.9,1.5,2.5,2.6c0.6,1.1,0.9,2.3,0.9,3.7C56.5,22.7,56.2,23.9,55.6,25z M52.9,19c-0.4-0.7-0.8-1.2-1.4-1.5
		c-0.6-0.4-1.2-0.5-2-0.5c-0.7,0-1.4,0.2-2,0.5c-0.6,0.4-1.1,0.9-1.4,1.5c-0.4,0.7-0.5,1.4-0.5,2.3s0.2,1.6,0.5,2.3s0.8,1.2,1.4,1.5
		c0.6,0.4,1.2,0.5,2,0.5c0.7,0,1.4-0.2,2-0.5c0.6-0.4,1.1-0.9,1.4-1.5c0.4-0.7,0.5-1.4,0.5-2.3S53.2,19.7,52.9,19z"/>
	<path d="M69.3,26.7c0,0.4-0.2,0.8-0.5,1.1c-0.3,0.3-0.7,0.5-1.1,0.5c-0.5,0-0.9-0.2-1.3-0.7l-3.1-3.9l-3,3.9
		c-0.2,0.2-0.3,0.4-0.6,0.5c-0.2,0.1-0.4,0.2-0.7,0.2c-0.4,0-0.7-0.1-1-0.4c-0.3-0.3-0.5-0.6-0.5-1c0-0.3,0.1-0.7,0.4-1l3.6-4.4
		l-3.7-4.7c-0.2-0.3-0.3-0.6-0.3-0.9c0-0.4,0.2-0.8,0.5-1.1c0.3-0.3,0.7-0.5,1.1-0.5c0.5,0,0.9,0.2,1.3,0.6l3.2,4l2.9-3.9
		c0.3-0.5,0.7-0.7,1.2-0.7c0.4,0,0.8,0.1,1,0.4c0.3,0.3,0.4,0.6,0.4,1c0,0.4-0.1,0.7-0.4,1l-3.5,4.4l3.7,4.7
		C69.2,26,69.3,26.4,69.3,26.7z"/>
	<path d="M71.6,12.4c-0.2-0.2-0.4-0.5-0.4-1v-0.5c0-0.5,0.1-0.8,0.4-1c0.3-0.2,0.7-0.3,1.2-0.3c0.6,0,1,0.1,1.3,0.3
		c0.2,0.2,0.4,0.5,0.4,1v0.5c0,0.5-0.1,0.8-0.4,1c-0.2,0.2-0.7,0.3-1.3,0.3C72.3,12.6,71.9,12.5,71.6,12.4z M74,27.8
		c-0.3,0.3-0.7,0.5-1.1,0.5c-0.4,0-0.8-0.2-1.1-0.5c-0.3-0.3-0.4-0.7-0.4-1.1V15.9c0-0.5,0.1-0.8,0.4-1.1c0.3-0.3,0.7-0.5,1.1-0.5
		c0.4,0,0.8,0.2,1.1,0.5c0.3,0.3,0.4,0.7,0.4,1.1v10.7C74.4,27.1,74.3,27.5,74,27.8z"/>
	<path d="M87.2,14.8c0.9,0.5,1.3,1.1,1.3,1.8c0,0.4-0.1,0.7-0.3,1C88,17.9,87.7,18,87.3,18c-0.3,0-0.5,0-0.7-0.1
		c-0.2-0.1-0.3-0.2-0.5-0.3c-0.2-0.1-0.3-0.2-0.5-0.3c-0.2-0.1-0.4-0.2-0.8-0.2c-0.3-0.1-0.6-0.1-0.8-0.1c-1.3,0-2.3,0.4-3,1.2
		S80,20,80,21.3c0,1.2,0.4,2.3,1.1,3.1s1.7,1.2,2.8,1.2c0.8,0,1.5-0.1,1.9-0.3c0.1-0.1,0.2-0.1,0.4-0.3c0.2-0.1,0.3-0.2,0.5-0.3
		c0.2-0.1,0.3-0.1,0.6-0.1c0.4,0,0.8,0.1,1,0.4c0.2,0.3,0.4,0.6,0.4,1.1c0,0.4-0.2,0.8-0.7,1.2c-0.5,0.4-1.1,0.7-1.9,0.9
		c-0.8,0.2-1.6,0.3-2.5,0.3c-1.3,0-2.5-0.3-3.5-0.9c-1-0.6-1.8-1.5-2.3-2.6c-0.5-1.1-0.8-2.3-0.8-3.7c0-1.4,0.3-2.7,0.9-3.7
		c0.6-1.1,1.4-1.9,2.4-2.6c1-0.6,2.2-0.9,3.5-0.9C85.1,14.1,86.3,14.3,87.2,14.8z"/>
	<path d="M103.1,25c-0.6,1.1-1.5,2-2.5,2.6c-1.1,0.6-2.3,0.9-3.5,0.9c-1.3,0-2.5-0.3-3.5-0.9c-1.1-0.6-1.9-1.5-2.5-2.6
		c-0.6-1.1-0.9-2.3-0.9-3.7c0-1.4,0.3-2.6,0.9-3.7c0.6-1.1,1.5-2,2.5-2.6c1.1-0.6,2.2-0.9,3.5-0.9c1.3,0,2.5,0.3,3.5,0.9
		c1.1,0.6,1.9,1.5,2.5,2.6c0.6,1.1,0.9,2.3,0.9,3.7C104,22.7,103.7,23.9,103.1,25z M100.4,19c-0.4-0.7-0.8-1.2-1.4-1.5
		c-0.6-0.4-1.2-0.5-2-0.5c-0.7,0-1.4,0.2-2,0.5c-0.6,0.4-1.1,0.9-1.4,1.5c-0.4,0.7-0.5,1.4-0.5,2.3s0.2,1.6,0.5,2.3s0.8,1.2,1.4,1.5
		c0.6,0.4,1.2,0.5,2,0.5c0.7,0,1.4-0.2,2-0.5c0.6-0.4,1.1-0.9,1.4-1.5c0.4-0.7,0.5-1.4,0.5-2.3S100.7,19.7,100.4,19z"/>
</svg>
