<svg fill="#fff" width="104" height="31" viewBox="0 0 104 31" xmlns="http://www.w3.org/2000/svg">
    <path d="M0,31 L31.2,31 L31.2,0 L0,0 L0,31 Z M1.04,1.03333333 L30.056,1.03333333 L30.056,29.8633333 L1.04,29.8633333 L1.04,1.03333333 Z" id="Shape"></path>
    <rect id="Rectangle-path" x="5.2" y="10.85" width="1.04" height="9.3"></rect>
    <path d="M12.584,19.22 C10.504,19.22 8.84,17.5666667 8.84,15.5 C8.84,13.4333333 10.504,11.78 12.584,11.78 C13.624,11.78 14.664,12.1933333 15.288,12.9166667 L15.912,12.1933333 C14.976,11.3666667 13.728,10.85 12.48,10.85 C9.776,10.85 7.592,12.9166667 7.592,15.5 C7.592,18.1866667 9.776,20.2533333 12.376,20.2533333 C13.624,20.2533333 14.872,19.7366667 15.912,18.8066667 L15.288,18.0833333 C14.664,18.7033333 13.624,19.22 12.584,19.22 Z" id="Shape"></path>
    <path d="M21.112,10.85 C18.408,10.85 16.224,12.9166667 16.224,15.5 C16.224,18.0833333 18.408,20.2533333 21.112,20.2533333 C23.816,20.2533333 26,18.1866667 26,15.5 C26,12.8133333 23.816,10.85 21.112,10.85 Z M21.112,19.22 C19.032,19.22 17.368,17.5666667 17.368,15.5 C17.368,13.4333333 19.032,11.78 21.112,11.78 C23.192,11.78 24.856,13.4333333 24.856,15.5 C24.96,17.5666667 23.192,19.22 21.112,19.22 Z" id="Shape"></path>
    <path d="M43.056,11.2633333 C41.392,11.2633333 40.144,11.8833333 39.312,13.02 L39.312,6.71666667 L35.048,6.71666667 L35.048,24.3866667 L39.312,24.3866667 L39.312,22.7333333 C40.248,23.87 41.496,24.49 43.16,24.49 C46.696,24.49 49.088,21.9066667 49.088,17.98 C49.088,13.8466667 46.696,11.2633333 43.056,11.2633333 Z M42.016,20.9766667 C40.352,20.9766667 39.312,19.7366667 39.312,17.7733333 C39.312,15.81 40.456,14.57 42.016,14.57 C43.68,14.57 44.824,15.9133333 44.824,17.7733333 C44.824,19.7366667 43.68,20.9766667 42.016,20.9766667 Z" id="Shape"></path>
    <path d="M56.576,11.2633333 C52.52,11.2633333 49.816,13.95 49.816,17.8766667 C49.816,21.8033333 52.416,24.3866667 56.68,24.3866667 C59.072,24.3866667 60.944,23.56 62.296,22.1133333 L60.112,19.9433333 C59.176,20.8733333 58.136,21.2866667 57.096,21.2866667 C55.64,21.2866667 54.6,20.46 54.08,19.0133333 L63.024,19.0133333 C63.336,14.26 61.048,11.2633333 56.576,11.2633333 Z M53.976,16.6366667 C54.288,15.19 55.12,14.1566667 56.576,14.1566667 C58.032,14.1566667 58.968,15.19 58.968,16.6366667 L53.976,16.6366667 Z" id="Shape"></path>
    <path d="M72.28,11.2633333 C70.408,11.2633333 68.952,12.09 68.016,13.5366667 L68.016,11.47 L63.752,11.47 L63.752,24.2833333 L68.016,24.2833333 L68.016,17.4633333 C68.12,16.0166667 69.16,14.9833333 70.512,14.9833333 C71.864,14.9833333 72.696,15.9133333 72.696,17.36 L72.696,24.18 L76.96,24.18 L76.96,16.0166667 C76.96,13.1233333 74.984,11.2633333 72.28,11.2633333 Z" id="Shape"></path>
    <path d="M84.448,20.9766667 C82.888,20.9766667 81.848,19.7366667 81.848,17.8766667 C81.848,16.0166667 82.888,14.7766667 84.448,14.7766667 C85.592,14.7766667 86.424,15.2933333 86.944,16.12 L89.96,14.3633333 C88.816,12.4 86.736,11.3666667 84.136,11.3666667 C80.08,11.3666667 77.48,14.0533333 77.48,17.98 C77.48,21.9066667 80.184,24.49 84.136,24.49 C86.84,24.49 88.92,23.3533333 89.96,21.39 L86.84,19.6333333 C86.424,20.5633333 85.592,20.9766667 84.448,20.9766667 Z" id="Shape"></path>
    <path d="M99.32,11.2633333 C97.448,11.2633333 95.992,12.09 95.056,13.5366667 L95.056,6.71666667 L90.792,6.71666667 L90.792,24.3866667 L95.056,24.3866667 L95.056,18.0833333 C95.056,16.43 95.992,15.19 97.552,15.19 C98.904,15.19 99.736,16.12 99.736,17.5666667 L99.736,24.3866667 L104,24.3866667 L104,16.2233333 C104,13.1233333 102.128,11.2633333 99.32,11.2633333 Z" id="Shape"></path>
</svg>