<svg fill="#fff" width="104" height="40" viewBox="0 0 104 40" xmlns="http://www.w3.org/2000/svg">
	<path id="path-3_1_" class="st0" d="M48.8,23.8c-0.4,0.5-0.9,0.9-1.5,1.1c-0.6,0.3-1.3,0.4-2.1,0.4c-0.7,0-1.4-0.1-2-0.4
		c-0.6-0.2-1.1-0.6-1.6-1c-0.4-0.4-0.8-1-1.1-1.6c-0.3-0.6-0.4-1.3-0.4-2c0-0.8,0.1-1.4,0.4-2.1s0.6-1.1,1.1-1.6c0.5-0.4,1-0.8,1.6-1
		c0.6-0.2,1.3-0.3,2-0.3c0.7,0,1.3,0.1,1.9,0.4s1.2,0.6,1.6,1l-1.5,1.6c-0.2-0.3-0.5-0.5-0.8-0.7c-0.3-0.1-0.7-0.2-1.1-0.2
		c-0.4,0-0.8,0.1-1.1,0.2c-0.3,0.1-0.6,0.3-0.9,0.6c-0.2,0.3-0.4,0.6-0.6,0.9c-0.1,0.4-0.2,0.7-0.2,1.2c0,0.4,0.1,0.8,0.2,1.2
		s0.3,0.7,0.5,0.9c0.2,0.3,0.5,0.5,0.8,0.6s0.7,0.2,1.1,0.2c0.4,0,0.8-0.1,1.2-0.3c0.3-0.2,0.6-0.4,0.8-0.7L48.8,23.8z M53.9,20.2
		c-0.1,0-0.2,0-0.3-0.1c-0.1,0-0.2,0-0.3,0c-0.3,0-0.5,0.1-0.7,0.2c-0.2,0.1-0.4,0.2-0.5,0.4C52,20.8,52,21,51.9,21.2
		c-0.1,0.2-0.1,0.3-0.1,0.5v3.4h-2.2v-6.7h2.1v1h0c0.2-0.3,0.4-0.6,0.7-0.8s0.7-0.3,1.1-0.3c0.1,0,0.2,0,0.3,0c0.1,0,0.2,0,0.2,0
		L53.9,20.2z M59.2,25.1v-0.9h0c-0.1,0.2-0.2,0.3-0.3,0.4c-0.1,0.1-0.3,0.2-0.4,0.3c-0.2,0.1-0.4,0.2-0.6,0.2
		c-0.2,0.1-0.4,0.1-0.7,0.1c-0.4,0-0.8-0.1-1.1-0.2s-0.6-0.4-0.7-0.6c-0.2-0.3-0.3-0.5-0.4-0.9c-0.1-0.3-0.1-0.7-0.1-1v-4.1H57V22
		c0,0.2,0,0.4,0,0.5s0.1,0.3,0.2,0.5s0.2,0.2,0.3,0.3c0.1,0.1,0.3,0.1,0.5,0.1c0.4,0,0.7-0.1,0.9-0.4c0.2-0.3,0.3-0.6,0.3-1v-3.6h2.2
		v6.7H59.2z M67.3,25.1v-3.6c0-0.2,0-0.4,0-0.5c0-0.2-0.1-0.3-0.2-0.4c-0.1-0.1-0.2-0.2-0.3-0.3c-0.1-0.1-0.3-0.1-0.5-0.1
		c-0.2,0-0.4,0-0.5,0.1c-0.1,0.1-0.3,0.2-0.4,0.3c-0.1,0.1-0.2,0.3-0.2,0.5c0,0.2-0.1,0.4-0.1,0.5v3.6H63v-6.7h2.1v0.9h0
		c0.1-0.1,0.2-0.3,0.3-0.4c0.1-0.1,0.3-0.3,0.4-0.4c0.2-0.1,0.4-0.2,0.6-0.2c0.2-0.1,0.4-0.1,0.6-0.1c0.4,0,0.8,0.1,1.1,0.2
		c0.3,0.2,0.6,0.4,0.7,0.6s0.3,0.5,0.4,0.9c0.1,0.3,0.1,0.7,0.1,1v4.1H67.3z M75.6,20.6c-0.1-0.2-0.3-0.3-0.5-0.4
		c-0.2-0.1-0.4-0.1-0.6-0.1c-0.2,0-0.4,0-0.6,0.1c-0.2,0.1-0.3,0.2-0.5,0.4c-0.1,0.2-0.2,0.3-0.3,0.5C73,21.3,73,21.5,73,21.7
		c0,0.2,0,0.5,0.1,0.7c0.1,0.2,0.2,0.4,0.3,0.5c0.1,0.2,0.3,0.3,0.5,0.4c0.2,0.1,0.4,0.1,0.6,0.1c0.2,0,0.4,0,0.7-0.1
		c0.2-0.1,0.4-0.2,0.5-0.4l1.2,1.5c-0.3,0.3-0.6,0.5-1.1,0.6c-0.4,0.2-0.9,0.2-1.4,0.2c-0.5,0-1-0.1-1.5-0.2
		c-0.4-0.2-0.8-0.4-1.2-0.7c-0.3-0.3-0.6-0.7-0.8-1.1c-0.2-0.4-0.3-0.9-0.3-1.5c0-0.5,0.1-1,0.3-1.5c0.2-0.4,0.4-0.8,0.8-1.1
		c0.3-0.3,0.7-0.5,1.2-0.7c0.4-0.2,0.9-0.2,1.4-0.2c0.2,0,0.5,0,0.7,0.1c0.2,0,0.5,0.1,0.7,0.2c0.2,0.1,0.4,0.2,0.6,0.3
		s0.3,0.2,0.5,0.4L75.6,20.6z M82.1,25.1v-3.6c0-0.2,0-0.4,0-0.5c0-0.2-0.1-0.3-0.2-0.4s-0.2-0.2-0.3-0.3c-0.1-0.1-0.3-0.1-0.5-0.1
		c-0.4,0-0.7,0.1-0.9,0.4c-0.2,0.3-0.3,0.6-0.3,1v3.6h-2.2V15h2.2v4.3h0c0.1-0.3,0.4-0.5,0.7-0.7c0.3-0.2,0.7-0.3,1.2-0.3
		c0.4,0,0.8,0.1,1.1,0.2c0.3,0.2,0.6,0.4,0.7,0.6s0.3,0.5,0.4,0.9s0.1,0.7,0.1,1v4.1H82.1z"/>
	<path id="path-1_1_" class="st0" d="M14.3,25.1v-9.5h2.3v9.5H14.3z M26.8,23.8c-0.4,0.5-0.9,0.9-1.5,1.1c-0.6,0.3-1.3,0.4-2.1,0.4
		c-0.7,0-1.4-0.1-2-0.4c-0.6-0.2-1.1-0.6-1.6-1c-0.4-0.4-0.8-1-1.1-1.6c-0.3-0.6-0.4-1.3-0.4-2c0-0.8,0.1-1.4,0.4-2.1
		c0.3-0.6,0.6-1.1,1.1-1.6c0.5-0.4,1-0.8,1.6-1c0.6-0.2,1.3-0.3,2-0.3c0.7,0,1.3,0.1,1.9,0.4s1.2,0.6,1.6,1l-1.5,1.6
		c-0.2-0.3-0.5-0.5-0.8-0.7c-0.3-0.1-0.7-0.2-1.1-0.2c-0.4,0-0.8,0.1-1.1,0.2s-0.6,0.3-0.9,0.6c-0.2,0.3-0.4,0.6-0.6,0.9
		c-0.1,0.4-0.2,0.7-0.2,1.2c0,0.4,0.1,0.8,0.2,1.2c0.1,0.4,0.3,0.7,0.5,0.9s0.5,0.5,0.8,0.6s0.7,0.2,1.1,0.2c0.4,0,0.8-0.1,1.2-0.3
		c0.3-0.2,0.6-0.4,0.8-0.7L26.8,23.8z M37.3,20.3c0,0.7-0.1,1.4-0.4,2.1c-0.3,0.6-0.6,1.1-1.1,1.6s-1,0.8-1.6,1
		c-0.6,0.2-1.3,0.4-2,0.4c-0.7,0-1.4-0.1-2-0.4c-0.6-0.2-1.2-0.6-1.6-1c-0.5-0.4-0.8-1-1.1-1.6c-0.3-0.6-0.4-1.3-0.4-2.1
		c0-0.8,0.1-1.4,0.4-2.1c0.3-0.6,0.6-1.1,1.1-1.6c0.5-0.4,1-0.8,1.6-1c0.6-0.2,1.3-0.3,2-0.3c0.7,0,1.4,0.1,2,0.3
		c0.6,0.2,1.2,0.6,1.6,1s0.8,0.9,1.1,1.6C37.2,18.9,37.3,19.5,37.3,20.3z M34.9,20.3c0-0.4-0.1-0.8-0.2-1.1c-0.1-0.4-0.3-0.7-0.5-0.9
		c-0.2-0.3-0.5-0.5-0.8-0.6c-0.3-0.1-0.7-0.2-1.1-0.2s-0.8,0.1-1.1,0.2c-0.3,0.1-0.6,0.3-0.8,0.6c-0.2,0.3-0.4,0.6-0.5,0.9
		c-0.1,0.4-0.2,0.7-0.2,1.1c0,0.4,0.1,0.8,0.2,1.2c0.1,0.4,0.3,0.7,0.5,0.9c0.2,0.3,0.5,0.5,0.8,0.6c0.3,0.1,0.7,0.2,1.1,0.2
		s0.8-0.1,1.1-0.2c0.3-0.1,0.6-0.3,0.8-0.6c0.2-0.3,0.4-0.6,0.6-0.9S34.9,20.7,34.9,20.3z"/>
	<path class="st0" d="M100.6,5.3c-0.1-0.1-0.2-0.1-0.2-0.2S100.1,5,100,5s-0.2,0-0.3,0.1c-0.1,0.1-0.2,0.1-0.2,0.2
		c-0.1,0.1-0.1,0.2-0.1,0.3c0,0.1-0.1,0.2-0.1,0.3c0,0.1,0,0.2,0.1,0.3c0,0.1,0.1,0.2,0.2,0.3c0.1,0.1,0.2,0.2,0.2,0.2
		c0.1,0.1,0.2,0.1,0.3,0.1s0.2,0,0.3-0.1c0.1-0.1,0.2-0.1,0.2-0.2c0.1-0.1,0.1-0.2,0.2-0.3s0.1-0.2,0.1-0.3c0-0.1,0-0.2-0.1-0.3
		C100.7,5.5,100.7,5.4,100.6,5.3z"/>
	<path class="st0" d="M98.4,0c-2.8,0-5.1,2.1-5.5,4.9H0V36h100.5V10.9c2-0.8,3.5-2.9,3.5-5.2C104,2.5,101.5,0,98.4,0z M96.3,2.9
		c0-0.1,0.1-0.1,0.1-0.2c0.1-0.1,0.1-0.1,0.2-0.1c0.1,0,0.2-0.1,0.2-0.1c0.1,0,0.2,0,0.2,0c0.1,0,0.1,0.1,0.2,0.1
		c0.1,0.1,0.1,0.1,0.1,0.2c0,0.1,0.1,0.2,0.1,0.2s0,0.2-0.1,0.2c0,0.1-0.1,0.1-0.1,0.2c-0.1,0.1-0.1,0.1-0.2,0.1c-0.1,0-0.2,0-0.2,0
		c-0.2,0-0.3-0.1-0.5-0.2c-0.1-0.1-0.2-0.3-0.2-0.4C96.2,3,96.3,2.9,96.3,2.9z M97.4,4.2v3.4h-1.1V4.2H97.4z M99,34.5H1.5V6.4h91.4
		c0.4,2.8,2.7,4.9,5.5,4.9c0.2,0,0.4,0,0.6,0V34.5z M101.7,6.6c-0.1,0.2-0.2,0.4-0.4,0.6c-0.2,0.2-0.4,0.3-0.6,0.4
		c-0.2,0.1-0.5,0.1-0.7,0.1c-0.3,0-0.5,0-0.7-0.1c-0.2-0.1-0.4-0.2-0.6-0.4c-0.2-0.2-0.3-0.3-0.4-0.6c-0.1-0.2-0.1-0.5-0.1-0.8
		c0-0.3,0-0.5,0.1-0.8c0.1-0.2,0.2-0.4,0.4-0.6c0.2-0.2,0.4-0.3,0.6-0.4c0.2-0.1,0.5-0.1,0.7-0.1c0.3,0,0.5,0,0.7,0.1
		c0.2,0.1,0.4,0.2,0.6,0.4c0.2,0.2,0.3,0.3,0.4,0.6c0.1,0.2,0.1,0.5,0.1,0.8C101.9,6.2,101.8,6.4,101.7,6.6z"/>
</svg>
