<svg fill="#fff" width="104" height="40" viewBox="0 0 104 40" xmlns="http://www.w3.org/2000/svg">
	<path d="M3.7,28H0V12.1h3.7V28z M12.7,27.9c-1,0-2-0.2-3-0.5C8.7,27,7.8,26.4,7,25.6C6.3,24.9,5.7,24,5.4,23
		c-0.4-0.9-0.6-2-0.6-3c0-1,0.2-2.1,0.6-3C5.8,16,6.3,15.1,7,14.4c0.7-0.7,1.7-1.4,2.6-1.8c0.9-0.4,2-0.5,3-0.5s2,0.2,2.9,0.5
		c0.9,0.4,1.9,0.9,2.6,1.8L15.7,17c-0.4-0.4-0.9-0.7-1.5-0.9c-0.5-0.2-1-0.3-1.6-0.3c-0.5,0-1,0.1-1.6,0.3c-0.5,0.2-0.9,0.5-1.4,0.9
		C9.3,17.4,9,18,8.8,18.4c-0.2,0.5-0.3,1-0.3,1.7c0,0.5,0.1,1.2,0.3,1.6C9,22.1,9.3,22.6,9.8,23c0.4,0.4,0.9,0.7,1.4,0.9
		c0.5,0.2,1,0.3,1.6,0.3c0.5,0,1-0.1,1.6-0.3c0.5-0.2,1-0.5,1.5-0.9l2.6,2.6c-0.7,0.7-1.7,1.4-2.6,1.8
		C14.7,27.8,13.8,27.9,12.7,27.9z"/>
	<path d="M53.4,13.3c1.6,0,2.8,0.4,3.8,1.4c0.9,0.9,1.5,2.3,1.5,4.2V26h-1.3v-7.3c-0.1-1.4-0.4-2.4-1-3.1
		c-0.6-0.7-1.7-1-3.1-1c-0.8,0-1.6,0.2-2.2,0.5c-0.7,0.3-1.4,0.9-2,1.8c0.2,0.5,0.3,1.3,0.3,2.1V26h-1.3v-7.2c0-2.9-1.4-4.3-4.2-4.3
		c-1.7,0-2.9,0.7-4,2V26h-1.3V13.8h1l0.2,1.3c1.2-1.2,2.5-1.7,4.1-1.7c2.1,0,3.6,0.8,4.6,2.5c0.7-0.8,1.5-1.5,2.2-1.9
		C51.3,13.5,52.3,13.3,53.4,13.3z M60.7,22.6c-0.1-0.7,0.1-1.5,0.4-2s0.7-1,1.3-1.4c0.5-0.3,1.2-0.6,1.8-0.7
		c0.6-0.2,1.4-0.2,2.1-0.2c1,0,2,0.2,2.7,0.6c0.7,0.4,1.5,0.8,1.9,1.5v-0.5c0-1.8-0.3-3-1-3.9s-1.8-1.3-3.3-1.3
		c-0.8,0-1.7,0.2-2.5,0.5c-0.8,0.3-1.5,0.8-2,1.4l-0.7-1c0.6-0.6,1.4-1.2,2.3-1.6c0.9-0.3,1.9-0.5,2.8-0.5c1.8,0,3.3,0.5,4.2,1.5
		s1.4,2.5,1.4,4.7v6.6h-1L70.8,25c-0.5,0.4-1.2,0.8-2,1.2c-0.9,0.3-1.8,0.5-2.6,0.5c-1.6,0-2.9-0.3-3.9-0.9
		C61.3,24.9,60.7,23.9,60.7,22.6L60.7,22.6z M70.9,23.7v-2c-0.3-0.6-0.9-1.2-1.8-1.7c-0.9-0.4-1.9-0.7-2.9-0.8c-0.5,0-1,0-1.6,0.1
		c-0.5,0.1-0.9,0.3-1.4,0.5c-0.4,0.2-0.7,0.6-0.9,1c-0.2,0.5-0.3,1-0.3,1.6c0.1,0.9,0.4,1.7,1.3,2.1c0.7,0.5,1.8,0.7,2.9,0.7
		c0.8,0,1.7-0.1,2.5-0.4C69.5,24.7,70.2,24.2,70.9,23.7z M80.6,13.4l-0.3,1.3c-0.1,0-0.3,0-0.5,0c-1.9,0-3.4,0.6-4.3,2v9.5h-1.3
		V13.8h1l0.3,1.3c1.2-1.2,2.6-1.7,4.4-1.7C80.1,13.4,80.3,13.4,80.6,13.4z M83.8,7.5V26h-1.3V7.5H83.8z M92.3,13.8l-6.1,6.1l6.3,6.2
		h-1.8l-6.2-6.2l6-6.1H92.3L92.3,13.8z M103.3,14.6l-0.6,1c-0.4-0.3-0.9-0.6-1.7-0.9c-0.7-0.3-1.5-0.4-2.2-0.4
		c-0.8,0-1.6,0.2-2.1,0.5c-0.5,0.3-0.8,0.8-0.8,1.5c-0.1,0.7,0.3,1.4,0.9,1.7c0.5,0.3,1.4,0.5,2.3,0.7c1.3,0.3,2.3,0.5,3,0.8
		c0.7,0.3,1.3,0.8,1.6,1.5c0.3,0.6,0.3,1.4,0.2,2.2c-0.2,1-0.8,1.8-1.9,2.3c-0.7,0.3-1.8,0.5-2.9,0.5c-0.9,0-1.9-0.2-2.9-0.5
		c-0.9-0.3-1.7-0.7-2.3-1.3l0.6-1l0.1,0.1c0.4,0.4,1,0.7,1.9,1c0.8,0.3,1.7,0.5,2.5,0.5c0.9,0,1.8-0.1,2.4-0.4
		c0.6-0.3,1-0.8,1.2-1.5c0.2-1-0.1-1.8-1.2-2.3c-0.6-0.3-1.6-0.5-2.6-0.7c-1.4-0.3-2.2-0.6-2.8-0.9c-1.2-0.6-1.7-1.6-1.6-2.8
		c0.1-1.2,0.5-2,1.5-2.6c0.7-0.5,1.6-0.7,2.7-0.7C100.5,13.1,102,13.7,103.3,14.6L103.3,14.6z"/>
	<path d="M26.5,12c-4.4,0-8,3.6-8,7.9s3.6,7.9,8,7.9s8-3.6,8-7.9S30.9,12,26.5,12z M30.2,21l0.7,4.1v0.1
		c0,0.1,0,0.2-0.1,0.3c-0.1,0.1-0.2,0.1-0.3,0.1c-0.1,0-0.2,0-0.3-0.1l-3.7-1.9l-3.7,1.9c-0.1,0.1-0.2,0.1-0.3,0.1
		c-0.1,0-0.2,0-0.3-0.1c-0.1-0.1-0.1-0.2-0.1-0.3v-0.1l0.7-4.1l-2.9-2.9c-0.1-0.1-0.2-0.3-0.2-0.4c0-0.2,0.1-0.3,0.4-0.3l4.1-0.6
		L26,13c0.1-0.2,0.2-0.3,0.4-0.3c0.1,0,0.3,0.1,0.4,0.3l1.8,3.7l4.1,0.6c0.3,0.1,0.4,0.2,0.4,0.3c0,0.1-0.1,0.2-0.2,0.4
		C33.2,18.1,30.2,21,30.2,21z"/>
</svg>
