<svg fill="#fff" width="104" height="40" viewBox="0 0 104 40" xmlns="http://www.w3.org/2000/svg">
	<path d="M101.9,34.4c-0.4-0.3-0.9-0.6-1.4-1c-2-1.7-3.8-3.4-5.7-5.2c-0.6,0.4-1.1,0.8-1.8,1.2c-7.4,4.5-16.7,2-21-5.7
		c-4.8-8.5-0.8-19.5,8.2-22.8c1.1-0.4,2.4-0.6,3.5-0.9c0.9,0,1.9,0,2.8,0c0.6,0.1,1.2,0.2,1.8,0.3c8.2,1.9,13.5,10.3,11.7,18.6
		c-0.5,2.4-1.5,4.6-2.9,6.5c0.2,0.2,0.4,0.4,0.6,0.6c1.7,1.6,3.4,3.1,5.1,4.7c0.4,0.3,0.7,0.8,1,1.2c0,0.3,0,0.7,0,1
		c-0.4,0.4-0.9,0.8-1.4,1.2C102.4,34.4,102.2,34.4,101.9,34.4z M73.4,16.1c0.1,0.6,0.1,1.6,0.3,2.5c1.9,8.9,12.5,12.5,19.2,6.5
		c5.2-4.7,5.5-12.9,0.7-17.9c-3.9-4.2-10.2-4.9-14.9-1.7C75.2,8.1,73.6,11.5,73.4,16.1z"/>
	<path d="M0.1,11.1C0.4,11,0.7,10.9,1,10.9c4.2,0,8.3,0,12.5,0c0.8,0,0.9,0.1,0.9,0.9c0,0.5,0,0.9,0,1.5
		c0,0.8-0.1,0.9-0.9,0.9c-1.5,0-2.8,0-4.4,0c0,0.3,0,0.6,0,0.8c0,5.2,0,10.5,0,15.7c0,0.9-0.1,1-1.1,1c-0.4,0-0.9,0-1.4,0
		c-1.4,0-1.4,0-1.4-1.2c0-5.2,0-10.3,0-15.5c0-0.2,0-0.5,0-0.8c-1.5,0-2.9,0-4.4,0C0.6,14.2,0.3,14,0,14C0.1,12.9,0.1,11.9,0.1,11.1z
		"/>
	<path d="M56.6,22.3c1-1.5,2.1-2.8,3-4.3c0.4-0.5,0.8-1.1,1.2-1.7c0.3-0.4,0.6-0.6,1.1-0.6c0.8,0,1.7,0,2.5,0
		c0.2,0,0.4,0.1,0.6,0.2c-0.1,0.2-0.1,0.4-0.2,0.6c-1.6,2.1-3.2,4.2-4.9,6.2c-0.4,0.4-0.3,0.7,0,1.1c1.7,2.3,3.2,4.6,4.8,6.8
		c0.1,0.2,0.2,0.5,0.3,0.7c-0.2,0.1-0.5,0.2-0.7,0.2c-0.8,0-1.7,0-2.5,0c-0.6,0-1-0.2-1.4-0.7c-1.2-1.9-2.5-3.7-3.7-5.6
		c-0.1-0.1-0.2-0.2-0.4-0.5c0,0.5,0,0.8,0,1.2c0,1.6,0,3.1,0,4.8c0,0.8-0.1,0.9-1,0.9c-0.5,0-1,0-1.7,0c-0.8,0-0.9-0.1-0.9-0.9
		c0-3.8,0-7.7,0-11.5c0-2.6,0-5.2,0-7.8c0-0.8,0.1-0.9,0.9-0.9c0.6,0,1.1,0,1.8,0s0.8,0.2,0.8,0.8c0,3.4,0,6.9,0,10.3
		c0,0.2,0,0.5,0,0.7C56.5,22.3,56.5,22.3,56.6,22.3z"/>
	<path d="M33.4,30.8c-1.8,1-3.4,1.5-5.2,1c-1.7-0.3-2.8-1.2-3.1-3c-0.2-0.9-0.2-2-0.1-2.9c0.3-2,1.9-3.1,4.2-3.4
		c1.4-0.1,2.6-0.2,4.2-0.2c-0.1-0.8-0.1-1.7-0.3-2.5c-0.2-0.7-0.9-0.9-1.7-0.9c-1.6,0-3.1,0.1-4.7,0.1c-0.8,0-0.9,0-0.9-0.8
		c0-2.1-0.4-1.9,1.9-2.2c1.9-0.3,3.7-0.4,5.5,0.1c2.2,0.5,3.5,2.1,3.5,4.4c0.1,3.5,0,7.2,0,10.7c0,0.5-0.2,0.7-0.7,0.7
		c-0.5,0-1,0-1.7,0C33.8,31.7,33.2,31.7,33.4,30.8z M33.1,24.8c-0.9,0-1.7-0.1-2.5,0c-1.8,0.1-2.5,1.1-2.2,2.9
		c0.1,0.7,0.5,1.1,1.2,1.1c1.1,0.1,2.2,0,3.2-0.6c0.2-0.1,0.3-0.3,0.3-0.5C33.1,26.8,33.1,25.9,33.1,24.8z"/>
	<path d="M39.6,23.4c0.1-0.8,0.1-2.3,0.5-3.5c0.6-2.5,2.6-3.9,5.1-4.1c1.2,0,2.6,0.1,3.8,0.2c0.6,0,0.9,0.3,0.8,1
		c0,0.4,0,0.9,0,1.4c0,0.6-0.2,0.7-0.8,0.6c-0.9-0.1-2-0.1-2.9-0.2c-1.7,0-2.7,0.7-2.8,2.3c-0.1,1.8-0.1,3.5,0,5.3
		c0.1,1.6,1.1,2.4,2.8,2.3c0.9,0,2-0.1,2.9-0.2c0.6-0.1,0.8,0.1,0.8,0.7c0,0.5,0,0.9,0,1.5c0,0.4-0.2,0.7-0.6,0.8
		c-1.8,0.3-3.4,0.5-5.2,0.1c-2.4-0.5-3.9-2.4-4.3-4.9C39.7,25.9,39.7,24.8,39.6,23.4z"/>
	<path d="M19.3,16.7c0.9-0.3,1.9-0.7,2.9-1c0.2-0.1,0.5-0.1,0.8-0.1c0.4,0,0.6,0.2,0.7,0.6c0,0.5,0,1,0,1.7
		c0,0.5-0.2,0.7-0.8,0.8c-0.9,0.2-2,0.4-2.9,0.7c-0.5,0.1-0.6,0.4-0.6,0.9c0,3.4,0,6.9,0,10.2c0,0.9-0.1,1-1,1c-0.6,0-1.1,0-1.8,0
		c-0.5,0-0.8-0.2-0.8-0.7c0-4.8,0-9.6,0-14.3c0-0.5,0.2-0.7,0.8-0.7c0.5,0,0.9,0,1.5,0C19.2,15.8,19.2,15.8,19.3,16.7z"/>
	<path d="M87.1,16.1c0.1-0.6,0.1-1.4,0.2-2c0.3-1.7,1.7-2.6,3.4-2.6c1.9,0,3.2,0.9,3.4,2.6c0.2,1.4,0.2,2.8,0,4.1
		c-0.2,1.7-1.6,2.6-3.4,2.6s-3.1-0.9-3.4-2.7C87.2,17.6,87.2,16.8,87.1,16.1z M91.9,16.2c0-0.5,0-1.1-0.1-1.7
		c-0.1-0.6-0.5-0.9-1.1-0.9s-1,0.3-1,0.8c-0.1,1.1-0.1,2.2,0,3.3c0,0.5,0.5,0.8,1,0.8c0.6,0,1-0.3,1.1-0.9
		C91.9,17.2,91.9,16.7,91.9,16.2z"/>
	<path d="M86.3,18.6c0,0.6,0,1.1,0,1.8c0,0.1-0.3,0.4-0.4,0.4c-0.9,0-1.9,0.1-2.7,0c-1.2-0.3-2-1.2-2.2-2.5
		c-0.1-1.1-0.2-2.4-0.1-3.5c0.2-2.1,1.6-3.1,3.6-3.1c1.7,0,1.9,0.2,1.8,1.9c0,0.1,0,0.2-0.1,0.4c-0.5,0-1.1-0.1-1.7-0.1
		c-0.8,0-1.2,0.3-1.2,1c-0.1,0.9-0.1,2,0,3c0.1,0.7,0.5,1,1.2,1c0.3,0,0.5,0,0.8,0C85.7,18.6,86,18.6,86.3,18.6z"/>
	<path d="M79.5,16.2c0,1.4,0,2.6,0,3.9c0,0.5-0.2,0.6-0.6,0.6c-1.8,0-1.8,0-1.8-1.8c0-2.2,0-4.5,0-6.6
		c0-0.5,0.2-0.7,0.7-0.7c1.7,0,1.7,0,1.7,1.7C79.5,14.2,79.5,15.2,79.5,16.2z"/>
</svg>
