<svg fill="#fff" width="104" height="60" viewBox="0 0 104 60" xmlns="http://www.w3.org/2000/svg">
<path d="M61.1,47.4c-2,0-3.8,0-5.7,0c-2,0-4,0-6,0c-0.6,0-1.1,0-1.7,0c-0.3,0-0.7,0.1-0.8,0.4c-3.2,3.2-6.6,6.2-9.8,9.4
	c-0.3,0.3-0.4,0.6-0.7,0.7C36.2,58,36.1,58,36,58c0-0.1-0.1-0.3-0.1-0.4c0-1.9,0-3.9-0.1-5.8c0-1.4,0-2.8,0-4c0-0.4-0.1-0.6-0.6-0.6
	c-1.8,0-3.5,0-5.3,0s-3.6-1.1-4-2.9c-0.1-0.4-0.3-1-0.3-1.4c0-8.3,0-16.4,0-24.7c0-2.3,1.8-4.3,4.3-4.3c0.8,0,1.5,0,2.4,0
	c13.7,0,27.3,0,40.9,0c1,0,1.8-0.1,2.8,0.3c1.1,0.4,2,1.2,2.4,2.3c0.3,0.7,0.3,1.4,0.3,2.1c0,8.1,0,16.1,0,24.3c0,2.5-2,4.4-4.5,4.4
	c-3.2,0-6.6,0-9.8,0C63.2,47.4,62.2,47.4,61.1,47.4L61.1,47.4z M52,17.6L52,17.6c-7.3,0-14.5,0-21.6,0c-0.1,0-0.4,0-0.6,0
	c-0.6,0-0.7,0.3-0.7,0.7c0,3,0,6.1,0,9.2c0,0.1,0,0.3,0,0.4c0,0.1,0.3,0.3,0.3,0.3c0.8-0.1,1.5-0.3,2.4-0.6c0.1,0,0.3-0.3,0.4-0.4
	c0.3-0.7,0.6-1.2,0.8-1.9c0-0.1,0.1-0.3,0.3-0.4c0.1,0.1,0.3,0.3,0.4,0.4c0.4,0.6,0.7,1.1,1.1,1.7c0.1,0.1,0.4,0.4,0.6,0.4
	c0.7,0.1,1.4,0.1,2.1,0.1c0.1,0,0.3,0.1,0.6,0.1c-0.1,0.1-0.1,0.4-0.3,0.6c-0.4,0.6-1,1-1.4,1.5c-0.1,0.1-0.1,0.4-0.1,0.7
	c0.1,0.7,0.4,1.2,0.6,1.9c0,0.1,0,0.4,0,0.4c-0.1,0-0.3,0-0.4,0c-0.7-0.3-1.4-0.6-2.1-0.8c-0.3-0.1-0.6,0-0.8,0
	c-0.7,0.3-1.3,0.7-1.8,1.1c-0.1,0-0.3,0.1-0.4,0.1s-0.1-0.3-0.1-0.4c0-0.7,0.1-1.4,0.1-1.9c0-0.4,0-0.6-0.3-0.8
	c-0.4-0.3-0.8-0.7-1.3-1c-0.1-0.1-0.3-0.1-0.4-0.1c0,0.1-0.1,0.3-0.1,0.4c0,4.5,0,9.1,0,13.6c0,0.7,0.1,1,0.8,1c0.6,0,1.1,0,1.8,0
	c2.2,0,4.5,0,6.7,0c0.6,0,0.6,0,0.6,0.6c0,1.7,0.1,3.3,0.1,5.1c0,0.1,0.1,0.3,0.1,0.4c0.1,0,0.3-0.1,0.3-0.1c2-1.9,3.9-3.7,5.9-5.7
	c0.1-0.1,0.3-0.3,0.6-0.3c1.7,0,3.5,0,5.2,0c1.8,0,3.6,0,5.4,0s3.6,0,5.4,0c2.1,0,4.3,0,6.4,0c1.8,0,3.8,0,5.6,0
	c0.6,0,0.8-0.1,0.8-0.8c0-1.5,0-3.2,0-4.7c0-1.9,0-3.9,0-5.8c0-2.1,0-4.1,0-6.2c0-1.1,0-2.1,0-3.2c0-1.7,0-3.3,0-4.8
	c0-0.4-0.3-0.7-0.7-0.7s-0.8,0-1.3,0C66.1,17.6,59,17.6,52,17.6z"/>
<path d="M67.6,32.1c0-0.4,0.1-0.8,0.1-1.2c0.1-0.4,0-0.7-0.3-0.8c-0.6-0.4-1.1-0.8-1.7-1.2c-0.6-0.4-0.6-0.4-1.3,0.1
	c-1,0.8-1.3,1.7-0.7,2.8c0.1,0.3,0.1,0.6,0.1,0.8c0,0.1,0,0.4,0,0.4c-0.1,0-0.3,0-0.4,0c-0.7-0.3-1.4-0.6-2.1-0.8
	c-0.3-0.1-0.6,0-0.8,0.1c-0.7,0.4-1.3,0.8-2,1.1c-0.1,0-0.3,0.1-0.3,0s-0.1-0.3-0.1-0.4c0-0.7,0.1-1.4,0.3-1.9c0-0.4,0-0.7-0.3-0.8
	c-0.6-0.4-1.1-0.8-1.7-1.2c-0.1-0.1-0.1-0.3-0.3-0.3c0.1-0.1,0.3-0.3,0.4-0.3c0.7-0.1,1.4-0.3,2-0.4c0.4,0,0.7-0.3,0.8-0.7
	c0.3-0.6,0.4-1.2,0.7-1.8c0-0.1,0.1-0.3,0.3-0.3c0.1,0.1,0.3,0.1,0.3,0.3c0.3,0.6,0.7,1.1,1,1.7c0.3,0.4,0.6,0.6,1,0.6
	c0.7,0,1.3,0,2,0.1c0.1,0,0.4,0.1,0.6,0.3c0.1,0,0.3,0.1,0.4,0.1c0.7-0.1,1.5-0.3,2.2-0.4c0.3,0,0.4-0.3,0.6-0.4
	c0.3-0.6,0.6-1.2,0.8-1.9c0-0.1,0.1-0.3,0.3-0.3c0.1,0,0.3,0.1,0.3,0.3c0.3,0.6,0.7,1,1,1.5c0.3,0.4,0.6,0.7,1,0.7
	c0.7,0,1.4,0.1,2.1,0.1c0.1,0,0.3,0.1,0.4,0.1c0,0.1-0.1,0.3-0.1,0.4c-0.4,0.6-1,1-1.5,1.5c-0.3,0.3-0.3,0.6-0.1,0.8
	c0.1,0.6,0.4,1.1,0.6,1.8c0,0.1,0,0.4,0,0.6c-0.1,0-0.3,0-0.4-0.1c-0.7-0.3-1.3-0.6-2-0.8c-0.3-0.1-0.6,0-0.7,0
	c-0.7,0.3-1.3,0.7-2,1.1c-0.4,0.3-0.6,0.1-0.6-0.3C67.6,32.5,67.6,32.2,67.6,32.1L67.6,32.1z M73.3,28.2v-0.1
	c-0.6,0-1.1-0.1-1.7-0.1c-0.4,0-0.7-0.1-0.8-0.4c-0.1-0.3-0.4-0.7-0.6-1c-0.1-0.1-0.3-0.3-0.3-0.3c-0.1,0-0.3,0.1-0.3,0.3
	c-0.1,0.3-0.3,0.7-0.4,1c-0.1,0.4-0.4,0.6-0.7,0.7c-0.4,0-0.8,0.1-1.3,0.3c-0.1,0-0.3,0.1-0.3,0.1c0,0.1,0.1,0.3,0.1,0.3
	c0.3,0.3,0.7,0.4,1,0.7c0.1,0.1,0.3,0.6,0.3,0.7c0,0.4-0.1,0.8-0.1,1.2c0,0.1,0,0.3,0.1,0.4c0.1,0,0.3,0,0.4,0
	c0.4-0.3,0.8-0.4,1.1-0.7c0.3-0.1,0.6-0.1,0.8,0c0.4,0.1,0.8,0.4,1.3,0.6c0.1,0,0.3,0.1,0.3,0c0.1-0.1,0.1-0.3,0.1-0.4
	c0-0.4-0.1-0.7-0.3-1c-0.3-0.4,0-0.7,0.3-1.1C72.6,28.9,73.1,28.5,73.3,28.2z"/>
<path d="M40.1,32.9c0-0.7,0.1-1.4,0.1-2.1c0-0.4,0-0.6-0.3-0.8c-0.6-0.4-1.1-0.8-1.7-1.4c-0.1-0.1-0.1-0.1-0.3-0.3
	c0.1-0.1,0.3-0.1,0.3-0.1c0.6-0.1,1.1-0.4,1.8-0.4c0.8,0,1.3-0.6,1.4-1.2c0.1-0.4,0.3-0.8,0.6-1.1c0-0.1,0.1-0.3,0.3-0.4
	c0.1,0.1,0.3,0.3,0.3,0.4c0.4,0.6,0.7,1.1,1,1.7c0.3,0.4,0.6,0.6,1,0.6c0.7,0,1.3,0,2,0.1c0.1,0,0.3,0.1,0.4,0.1
	c-0.1,0.1-0.1,0.3-0.3,0.4c-0.4,0.6-1,1-1.4,1.5C45,30.2,45,30.3,45,30.6c0.1,0.6,0.4,1.2,0.6,1.8c0,0.1,0.1,0.1,0,0.3
	c0,0.1,0,0.3-0.1,0.4h-0.3c-0.7-0.3-1.4-0.6-2.2-0.8c-0.3-0.1-0.6,0-0.8,0.1c-0.7,0.3-1.3,0.7-2,1.1c-0.1,0-0.3,0.1-0.4,0
	C40.1,33.2,40.1,33,40.1,32.9L40.1,32.9z"/>
<path d="M49.3,32.6c0-0.6,0.1-1.2,0.1-1.8c0-0.4-0.1-0.6-0.4-0.8c-0.6-0.4-1.1-0.8-1.7-1.4c-0.1,0-0.1-0.1-0.1-0.3
	c0-0.1,0.1-0.1,0.3-0.1c0.7-0.1,1.5-0.3,2.2-0.6c0.3,0,0.6-0.3,0.7-0.6c0.3-0.6,0.6-1.2,0.8-1.8c0-0.1,0.3-0.3,0.4-0.3
	c0,0,0.1,0.1,0.3,0.3c0.4,0.6,0.7,1.1,1.1,1.7c0.1,0.3,0.4,0.4,0.8,0.4c0.7,0,1.4,0,2.1,0.1c0.1,0,0.3,0.1,0.4,0.1
	c0,0.1-0.1,0.3-0.3,0.4c-0.4,0.4-0.8,1-1.4,1.4c-0.3,0.3-0.4,0.6-0.3,1c0.1,0.7,0.4,1.4,0.6,1.9c0,0.1,0,0.3,0,0.3
	c-0.1,0-0.3,0-0.4,0c-0.6-0.3-1.3-0.6-1.8-0.8c-0.4-0.1-0.8-0.3-1.3,0.1c-0.4,0.3-1,0.6-1.5,0.8c-0.1,0.1-0.4,0.1-0.6,0.1
	C49.3,33,49.3,32.8,49.3,32.6C49.2,32.6,49.2,32.6,49.3,32.6z"/>
</svg>
