<svg fill="#fff" width="144" height="24" viewBox="0 0 144 24" xmlns="http://www.w3.org/2000/svg">
	<path d="M86.1,6h-8c-2.2,0-4,1.8-4,4v10c0,2.2,1.8,4,4,4h11.2c0.1,0,0.2-0.1,0.2-0.2v-1.5c0-0.1-0.1-0.2-0.2-0.2H78.1
		c-1.1,0-2-0.9-2-2v-3h13.8c0.1,0,0.2-0.1,0.2-0.2V10C90.1,7.8,88.3,6,86.1,6z M88.1,14.8c0,0.1-0.1,0.2-0.2,0.2H76.1v-5
		c0-1.1,0.9-2,2-2h8c1.1,0,2,0.9,2,2V14.8z"/>
	<path d="M66,6h-3c-1.8,0-3.4,0.8-4.5,2c-0.7-1.2-2-2-3.5-2h-3c-1.5,0-2.9,0.6-4,1.5V6.2C48,6.1,47.9,6,47.8,6h-1.5
		c-0.1,0-0.2,0.1-0.2,0.2v17.5c0,0.1,0.1,0.2,0.2,0.2h1.5c0.1,0,0.2-0.1,0.2-0.2V12c0-2.2,1.8-4,4-4h3c1.1,0,2,0.9,2,2v13.8
		c0,0.1,0.1,0.2,0.2,0.2h1.5c0.1,0,0.2-0.1,0.2-0.2V12c0-2.2,1.8-4,4-4h3c1.1,0,2,0.9,2,2v13.8c0,0.1,0.1,0.2,0.2,0.2h1.5
		c0.1,0,0.2-0.1,0.2-0.2V10C70,7.8,68.2,6,66,6z"/>
	<path d="M140.1,6h-6c-1.5,0-2.9,0.6-4,1.5V0.2c0-0.1-0.1-0.2-0.2-0.2h-1.5c-0.1,0-0.2,0.1-0.2,0.2v23.5
		c0,0.1,0.1,0.2,0.2,0.2h1.5c0.1,0,0.2-0.1,0.2-0.2V12c0-2.2,1.8-4,4-4h6c1.1,0,2,0.9,2,2v13.8c0,0.1,0.1,0.2,0.2,0.2h1.5
		c0.1,0,0.2-0.1,0.2-0.2V10C144.1,7.8,142.3,6,140.1,6z"/>
	<path d="M106.1,6h-6c-1.5,0-2.9,0.6-4,1.5V6.2C96.1,6.1,96,6,95.9,6h-1.5c-0.1,0-0.2,0.1-0.2,0.2v17.5
		c0,0.1,0.1,0.2,0.2,0.2h1.5c0.1,0,0.2-0.1,0.2-0.2V12c0-2.2,1.8-4,4-4h6c1.1,0,2,0.9,2,2v13.8c0,0.1,0.1,0.2,0.2,0.2h1.5
		c0.1,0,0.2-0.1,0.2-0.2V10C110.1,7.8,108.3,6,106.1,6z"/>
	<path d="M38,6h-8c-2.2,0-4,1.8-4,4v10c0,2.2,1.8,4,4,4h11.2c0.1,0,0.2-0.1,0.2-0.2v-1.5c0-0.1-0.1-0.2-0.2-0.2H30
		c-1.1,0-2-0.9-2-2v-3h13.8c0.1,0,0.2-0.1,0.2-0.2V10C42,7.8,40.2,6,38,6z M40,14.8c0,0.1-0.1,0.2-0.2,0.2H28v-5c0-1.1,0.9-2,2-2h8
		c1.1,0,2,0.9,2,2V14.8z"/>
	<path d="M22,0.2C22,0.1,21.9,0,21.8,0h-1.5C20.1,0,20,0.1,20,0.2v23.5c0,0.1,0.1,0.2,0.2,0.2h1.5c0.1,0,0.2-0.1,0.2-0.2
		V0.2H22z"/>
	<path d="M124.9,22h-5.8c-1.7,0-3-1.3-3-3V8h8.2c0.1,0,0.2-0.1,0.2-0.2V6.3c0-0.1-0.1-0.2-0.2-0.2h-8.2V2.3
		c0-0.1-0.1-0.2-0.2-0.2h-1.5c-0.1,0-0.2,0.1-0.2,0.2V19c0,2.8,2.2,5,5,5h5.8c0.1,0,0.2-0.1,0.2-0.2v-1.5C125.1,22.1,125,22,124.9,22
		z"/>
	<path d="M8,4c1.1,0,2-0.9,2-2S9.1,0,8,0S6,0.9,6,2S6.9,4,8,4z"/>
	<path d="M12,6H4c-2.2,0-4,1.8-4,4v10c0,2.2,1.8,4,4,4h11.2c0.1,0,0.2-0.1,0.2-0.2v-1.5c0-0.1-0.1-0.2-0.2-0.2H4
		c-1.1,0-2-0.9-2-2v-3h13.8c0.1,0,0.2-0.1,0.2-0.2V10C16,7.8,14.2,6,12,6z M14,14.8c0,0.1-0.1,0.2-0.2,0.2H2v-5c0-1.1,0.9-2,2-2h8
		c1.1,0,2,0.9,2,2V14.8z"/>
</svg>
